<mxfile host="Electron" modified="2023-12-09T10:08:25.422Z" agent="Mozilla/5.0 (X11; Linux x86_64) AppleWebKit/537.36 (KHTML, like Gecko) draw.io/22.0.2 Chrome/114.0.5735.289 Electron/25.8.4 Safari/537.36" etag="2z1QwKeMuVjhBX1CxzS2" version="22.0.2" type="device" pages="5">
  <diagram name="Sequence Diagram" id="CWnMliGkQOAIhzzo4rOh">
    <mxGraphModel dx="993" dy="3993" grid="1" gridSize="10" guides="1" tooltips="1" connect="1" arrows="1" fold="1" page="1" pageScale="1" pageWidth="1654" pageHeight="1169" math="0" shadow="0">
      <root>
        <mxCell id="0" />
        <mxCell id="1" parent="0" />
        <mxCell id="VhqbSwDZ0MjB6FzKbK7b-6" value="" style="shape=umlLifeline;perimeter=lifelinePerimeter;whiteSpace=wrap;html=1;container=1;dropTarget=0;collapsible=0;recursiveResize=0;outlineConnect=0;portConstraint=eastwest;newEdgeStyle={&quot;curved&quot;:0,&quot;rounded&quot;:0};participant=umlActor;" parent="1" vertex="1">
          <mxGeometry x="1961" y="69" width="20" height="660" as="geometry" />
        </mxCell>
        <mxCell id="VhqbSwDZ0MjB6FzKbK7b-7" value="" style="html=1;points=[[0,0,0,0,5],[0,1,0,0,-5],[1,0,0,0,5],[1,1,0,0,-5]];perimeter=orthogonalPerimeter;outlineConnect=0;targetShapes=umlLifeline;portConstraint=eastwest;newEdgeStyle={&quot;curved&quot;:0,&quot;rounded&quot;:0};" parent="VhqbSwDZ0MjB6FzKbK7b-6" vertex="1">
          <mxGeometry x="5" y="50" width="10" height="600" as="geometry" />
        </mxCell>
        <mxCell id="VhqbSwDZ0MjB6FzKbK7b-8" value="Pizzeria" style="shape=umlLifeline;perimeter=lifelinePerimeter;whiteSpace=wrap;html=1;container=1;dropTarget=0;collapsible=0;recursiveResize=0;outlineConnect=0;portConstraint=eastwest;newEdgeStyle={&quot;curved&quot;:0,&quot;rounded&quot;:0};" parent="1" vertex="1">
          <mxGeometry x="2141" y="69" width="100" height="640" as="geometry" />
        </mxCell>
        <mxCell id="VhqbSwDZ0MjB6FzKbK7b-10" value="" style="html=1;points=[[0,0,0,0,5],[0,1,0,0,-5],[1,0,0,0,5],[1,1,0,0,-5]];perimeter=orthogonalPerimeter;outlineConnect=0;targetShapes=umlLifeline;portConstraint=eastwest;newEdgeStyle={&quot;curved&quot;:0,&quot;rounded&quot;:0};" parent="VhqbSwDZ0MjB6FzKbK7b-8" vertex="1">
          <mxGeometry x="45" y="70" width="10" height="80" as="geometry" />
        </mxCell>
        <mxCell id="VhqbSwDZ0MjB6FzKbK7b-13" value="" style="html=1;points=[[0,0,0,0,5],[0,1,0,0,-5],[1,0,0,0,5],[1,1,0,0,-5]];perimeter=orthogonalPerimeter;outlineConnect=0;targetShapes=umlLifeline;portConstraint=eastwest;newEdgeStyle={&quot;curved&quot;:0,&quot;rounded&quot;:0};" parent="VhqbSwDZ0MjB6FzKbK7b-8" vertex="1">
          <mxGeometry x="45" y="180" width="10" height="450" as="geometry" />
        </mxCell>
        <mxCell id="VhqbSwDZ0MjB6FzKbK7b-11" value="create account" style="html=1;verticalAlign=bottom;endArrow=block;curved=0;rounded=0;entryX=0;entryY=0;entryDx=0;entryDy=5;" parent="1" source="VhqbSwDZ0MjB6FzKbK7b-7" target="VhqbSwDZ0MjB6FzKbK7b-10" edge="1">
          <mxGeometry relative="1" as="geometry">
            <mxPoint x="2116" y="144" as="sourcePoint" />
          </mxGeometry>
        </mxCell>
        <mxCell id="VhqbSwDZ0MjB6FzKbK7b-12" value="account" style="html=1;verticalAlign=bottom;endArrow=open;dashed=1;endSize=8;curved=0;rounded=0;exitX=0;exitY=1;exitDx=0;exitDy=-5;" parent="1" source="VhqbSwDZ0MjB6FzKbK7b-10" target="VhqbSwDZ0MjB6FzKbK7b-7" edge="1">
          <mxGeometry relative="1" as="geometry">
            <mxPoint x="2116" y="214" as="targetPoint" />
          </mxGeometry>
        </mxCell>
        <mxCell id="VhqbSwDZ0MjB6FzKbK7b-14" value="make order" style="html=1;verticalAlign=bottom;endArrow=block;curved=0;rounded=0;entryX=0;entryY=0;entryDx=0;entryDy=5;" parent="1" source="VhqbSwDZ0MjB6FzKbK7b-7" target="VhqbSwDZ0MjB6FzKbK7b-13" edge="1">
          <mxGeometry relative="1" as="geometry">
            <mxPoint x="2116" y="254" as="sourcePoint" />
          </mxGeometry>
        </mxCell>
        <mxCell id="VhqbSwDZ0MjB6FzKbK7b-15" value="return" style="html=1;verticalAlign=bottom;endArrow=open;dashed=1;endSize=8;curved=0;rounded=0;exitX=0;exitY=1;exitDx=0;exitDy=-5;" parent="1" source="VhqbSwDZ0MjB6FzKbK7b-13" target="VhqbSwDZ0MjB6FzKbK7b-7" edge="1">
          <mxGeometry relative="1" as="geometry">
            <mxPoint x="2116" y="324" as="targetPoint" />
          </mxGeometry>
        </mxCell>
        <mxCell id="VhqbSwDZ0MjB6FzKbK7b-16" value="Fleet Service" style="shape=umlLifeline;perimeter=lifelinePerimeter;whiteSpace=wrap;html=1;container=1;dropTarget=0;collapsible=0;recursiveResize=0;outlineConnect=0;portConstraint=eastwest;newEdgeStyle={&quot;curved&quot;:0,&quot;rounded&quot;:0};" parent="1" vertex="1">
          <mxGeometry x="2391" y="69" width="100" height="650" as="geometry" />
        </mxCell>
        <mxCell id="VhqbSwDZ0MjB6FzKbK7b-37" value="" style="html=1;points=[[0,0,0,0,5],[0,1,0,0,-5],[1,0,0,0,5],[1,1,0,0,-5]];perimeter=orthogonalPerimeter;outlineConnect=0;targetShapes=umlLifeline;portConstraint=eastwest;newEdgeStyle={&quot;curved&quot;:0,&quot;rounded&quot;:0};" parent="VhqbSwDZ0MjB6FzKbK7b-16" vertex="1">
          <mxGeometry x="45" y="50" width="10" height="590" as="geometry" />
        </mxCell>
        <mxCell id="VhqbSwDZ0MjB6FzKbK7b-17" value="" style="html=1;points=[[0,0,0,0,5],[0,1,0,0,-5],[1,0,0,0,5],[1,1,0,0,-5]];perimeter=orthogonalPerimeter;outlineConnect=0;targetShapes=umlLifeline;portConstraint=eastwest;newEdgeStyle={&quot;curved&quot;:0,&quot;rounded&quot;:0};" parent="VhqbSwDZ0MjB6FzKbK7b-16" vertex="1">
          <mxGeometry x="45" y="190" width="10" height="230" as="geometry" />
        </mxCell>
        <mxCell id="VhqbSwDZ0MjB6FzKbK7b-33" value="" style="html=1;points=[[0,0,0,0,5],[0,1,0,0,-5],[1,0,0,0,5],[1,1,0,0,-5]];perimeter=orthogonalPerimeter;outlineConnect=0;targetShapes=umlLifeline;portConstraint=eastwest;newEdgeStyle={&quot;curved&quot;:0,&quot;rounded&quot;:0};" parent="VhqbSwDZ0MjB6FzKbK7b-16" vertex="1">
          <mxGeometry x="45" y="295" width="10" height="40" as="geometry" />
        </mxCell>
        <mxCell id="VhqbSwDZ0MjB6FzKbK7b-34" value="Find Available Drone" style="html=1;align=left;spacingLeft=2;endArrow=block;rounded=0;edgeStyle=orthogonalEdgeStyle;curved=0;rounded=0;" parent="VhqbSwDZ0MjB6FzKbK7b-16" target="VhqbSwDZ0MjB6FzKbK7b-33" edge="1">
          <mxGeometry relative="1" as="geometry">
            <mxPoint x="50" y="275" as="sourcePoint" />
            <Array as="points">
              <mxPoint x="80" y="305" />
            </Array>
          </mxGeometry>
        </mxCell>
        <mxCell id="VhqbSwDZ0MjB6FzKbK7b-18" value="Post Flight" style="html=1;verticalAlign=bottom;endArrow=block;curved=0;rounded=0;entryX=0;entryY=0;entryDx=0;entryDy=5;" parent="1" source="VhqbSwDZ0MjB6FzKbK7b-13" target="VhqbSwDZ0MjB6FzKbK7b-17" edge="1">
          <mxGeometry relative="1" as="geometry">
            <mxPoint x="2321" y="264" as="sourcePoint" />
          </mxGeometry>
        </mxCell>
        <mxCell id="VhqbSwDZ0MjB6FzKbK7b-19" value="return FlightOrder" style="html=1;verticalAlign=bottom;endArrow=open;dashed=1;endSize=8;curved=0;rounded=0;exitX=0;exitY=1;exitDx=0;exitDy=-5;" parent="1" source="VhqbSwDZ0MjB6FzKbK7b-17" target="VhqbSwDZ0MjB6FzKbK7b-13" edge="1">
          <mxGeometry relative="1" as="geometry">
            <mxPoint x="2321" y="334" as="targetPoint" />
          </mxGeometry>
        </mxCell>
        <mxCell id="VhqbSwDZ0MjB6FzKbK7b-20" value="MQ" style="shape=umlLifeline;perimeter=lifelinePerimeter;whiteSpace=wrap;html=1;container=1;dropTarget=0;collapsible=0;recursiveResize=0;outlineConnect=0;portConstraint=eastwest;newEdgeStyle={&quot;curved&quot;:0,&quot;rounded&quot;:0};" parent="1" vertex="1">
          <mxGeometry x="2641" y="69" width="100" height="310" as="geometry" />
        </mxCell>
        <mxCell id="VhqbSwDZ0MjB6FzKbK7b-41" value="" style="html=1;points=[[0,0,0,0,5],[0,1,0,0,-5],[1,0,0,0,5],[1,1,0,0,-5]];perimeter=orthogonalPerimeter;outlineConnect=0;targetShapes=umlLifeline;portConstraint=eastwest;newEdgeStyle={&quot;curved&quot;:0,&quot;rounded&quot;:0};" parent="VhqbSwDZ0MjB6FzKbK7b-20" vertex="1">
          <mxGeometry x="45" y="50" width="10" height="250" as="geometry" />
        </mxCell>
        <mxCell id="VhqbSwDZ0MjB6FzKbK7b-25" value="Post Order" style="html=1;verticalAlign=bottom;endArrow=block;curved=0;rounded=0;entryX=0;entryY=0;entryDx=0;entryDy=5;" parent="1" source="VhqbSwDZ0MjB6FzKbK7b-17" edge="1">
          <mxGeometry relative="1" as="geometry">
            <mxPoint x="2601" y="294" as="sourcePoint" />
            <mxPoint x="2686" y="294" as="targetPoint" />
          </mxGeometry>
        </mxCell>
        <mxCell id="VhqbSwDZ0MjB6FzKbK7b-27" value="Drone" style="shape=umlLifeline;perimeter=lifelinePerimeter;whiteSpace=wrap;html=1;container=1;dropTarget=0;collapsible=0;recursiveResize=0;outlineConnect=0;portConstraint=eastwest;newEdgeStyle={&quot;curved&quot;:0,&quot;rounded&quot;:0};" parent="1" vertex="1">
          <mxGeometry x="2901" y="69" width="100" height="330" as="geometry" />
        </mxCell>
        <mxCell id="VhqbSwDZ0MjB6FzKbK7b-35" value="" style="html=1;points=[[0,0,0,0,5],[0,1,0,0,-5],[1,0,0,0,5],[1,1,0,0,-5]];perimeter=orthogonalPerimeter;outlineConnect=0;targetShapes=umlLifeline;portConstraint=eastwest;newEdgeStyle={&quot;curved&quot;:0,&quot;rounded&quot;:0};" parent="VhqbSwDZ0MjB6FzKbK7b-27" vertex="1">
          <mxGeometry x="45" y="50" width="10" height="260" as="geometry" />
        </mxCell>
        <mxCell id="VhqbSwDZ0MjB6FzKbK7b-32" value="Listen MQ" style="html=1;verticalAlign=bottom;endArrow=block;curved=0;rounded=0;" parent="1" source="VhqbSwDZ0MjB6FzKbK7b-35" edge="1">
          <mxGeometry width="80" relative="1" as="geometry">
            <mxPoint x="2941" y="339" as="sourcePoint" />
            <mxPoint x="2690.5" y="339" as="targetPoint" />
          </mxGeometry>
        </mxCell>
        <mxCell id="VhqbSwDZ0MjB6FzKbK7b-38" value="&lt;span style=&quot;white-space: pre;&quot;&gt;&#x9;&lt;/span&gt;&lt;span style=&quot;white-space: pre;&quot;&gt;&#x9;&lt;/span&gt;&lt;span style=&quot;white-space: pre;&quot;&gt;&#x9;&lt;/span&gt;&lt;span style=&quot;white-space: pre;&quot;&gt;&#x9;&lt;/span&gt;&lt;span style=&quot;white-space: pre;&quot;&gt;&#x9;&lt;/span&gt;Register" style="html=1;verticalAlign=bottom;endArrow=block;curved=0;rounded=0;align=left;" parent="1" target="VhqbSwDZ0MjB6FzKbK7b-37" edge="1">
          <mxGeometry x="1" y="-237" width="80" relative="1" as="geometry">
            <mxPoint x="2946" y="169" as="sourcePoint" />
            <mxPoint x="2451" y="169" as="targetPoint" />
            <mxPoint x="-237" y="223" as="offset" />
          </mxGeometry>
        </mxCell>
        <mxCell id="VhqbSwDZ0MjB6FzKbK7b-39" value="&lt;span style=&quot;white-space: pre;&quot;&gt;&#x9;&lt;/span&gt;&lt;span style=&quot;white-space: pre;&quot;&gt;&#x9;&lt;/span&gt;&lt;span style=&quot;white-space: pre;&quot;&gt;&#x9;&lt;/span&gt;&lt;span style=&quot;white-space: pre;&quot;&gt;&#x9;&lt;/span&gt;&lt;span style=&quot;white-space: pre;&quot;&gt;&#x9;&lt;/span&gt;Status Update" style="html=1;verticalAlign=bottom;endArrow=block;curved=0;rounded=0;align=left;" parent="1" source="VhqbSwDZ0MjB6FzKbK7b-35" target="VhqbSwDZ0MjB6FzKbK7b-37" edge="1">
          <mxGeometry width="80" relative="1" as="geometry">
            <mxPoint x="2941" y="199" as="sourcePoint" />
            <mxPoint x="2441" y="199" as="targetPoint" />
          </mxGeometry>
        </mxCell>
        <mxCell id="JHMAfL3EiL-7cQnIGbuX-1" value="" style="shape=umlLifeline;perimeter=lifelinePerimeter;whiteSpace=wrap;html=1;container=1;dropTarget=0;collapsible=0;recursiveResize=0;outlineConnect=0;portConstraint=eastwest;newEdgeStyle={&quot;curved&quot;:0,&quot;rounded&quot;:0};participant=umlActor;" vertex="1" parent="1">
          <mxGeometry x="1961" y="769" width="20" height="300" as="geometry" />
        </mxCell>
        <mxCell id="JHMAfL3EiL-7cQnIGbuX-5" value="" style="html=1;points=[[0,0,0,0,5],[0,1,0,0,-5],[1,0,0,0,5],[1,1,0,0,-5]];perimeter=orthogonalPerimeter;outlineConnect=0;targetShapes=umlLifeline;portConstraint=eastwest;newEdgeStyle={&quot;curved&quot;:0,&quot;rounded&quot;:0};" vertex="1" parent="JHMAfL3EiL-7cQnIGbuX-1">
          <mxGeometry x="5" y="57" width="10" height="233" as="geometry" />
        </mxCell>
        <mxCell id="JHMAfL3EiL-7cQnIGbuX-2" value="Fleet Service" style="shape=umlLifeline;perimeter=lifelinePerimeter;whiteSpace=wrap;html=1;container=1;dropTarget=0;collapsible=0;recursiveResize=0;outlineConnect=0;portConstraint=eastwest;newEdgeStyle={&quot;curved&quot;:0,&quot;rounded&quot;:0};" vertex="1" parent="1">
          <mxGeometry x="2101" y="769" width="100" height="300" as="geometry" />
        </mxCell>
        <mxCell id="JHMAfL3EiL-7cQnIGbuX-6" value="" style="html=1;points=[[0,0,0,0,5],[0,1,0,0,-5],[1,0,0,0,5],[1,1,0,0,-5]];perimeter=orthogonalPerimeter;outlineConnect=0;targetShapes=umlLifeline;portConstraint=eastwest;newEdgeStyle={&quot;curved&quot;:0,&quot;rounded&quot;:0};" vertex="1" parent="JHMAfL3EiL-7cQnIGbuX-2">
          <mxGeometry x="45" y="57" width="10" height="223" as="geometry" />
        </mxCell>
        <mxCell id="JHMAfL3EiL-7cQnIGbuX-3" value="Drone" style="shape=umlLifeline;perimeter=lifelinePerimeter;whiteSpace=wrap;html=1;container=1;dropTarget=0;collapsible=0;recursiveResize=0;outlineConnect=0;portConstraint=eastwest;newEdgeStyle={&quot;curved&quot;:0,&quot;rounded&quot;:0};" vertex="1" parent="1">
          <mxGeometry x="2341" y="769" width="100" height="330" as="geometry" />
        </mxCell>
        <mxCell id="JHMAfL3EiL-7cQnIGbuX-13" value="" style="html=1;points=[[0,0,0,0,5],[0,1,0,0,-5],[1,0,0,0,5],[1,1,0,0,-5]];perimeter=orthogonalPerimeter;outlineConnect=0;targetShapes=umlLifeline;portConstraint=eastwest;newEdgeStyle={&quot;curved&quot;:0,&quot;rounded&quot;:0};" vertex="1" parent="JHMAfL3EiL-7cQnIGbuX-3">
          <mxGeometry x="45" y="57" width="10" height="263" as="geometry" />
        </mxCell>
        <mxCell id="JHMAfL3EiL-7cQnIGbuX-7" value="register drone" style="html=1;verticalAlign=bottom;endArrow=block;curved=0;rounded=0;entryX=0;entryY=0;entryDx=0;entryDy=5;" edge="1" target="JHMAfL3EiL-7cQnIGbuX-6" parent="1" source="JHMAfL3EiL-7cQnIGbuX-5">
          <mxGeometry relative="1" as="geometry">
            <mxPoint x="2076" y="829" as="sourcePoint" />
          </mxGeometry>
        </mxCell>
        <mxCell id="JHMAfL3EiL-7cQnIGbuX-8" value="drone" style="html=1;verticalAlign=bottom;endArrow=open;dashed=1;endSize=8;curved=0;rounded=0;" edge="1" source="JHMAfL3EiL-7cQnIGbuX-6" parent="1" target="JHMAfL3EiL-7cQnIGbuX-5">
          <mxGeometry relative="1" as="geometry">
            <mxPoint x="2076" y="901" as="targetPoint" />
            <Array as="points">
              <mxPoint x="2061" y="879" />
            </Array>
          </mxGeometry>
        </mxCell>
        <mxCell id="JHMAfL3EiL-7cQnIGbuX-12" value="register" style="html=1;verticalAlign=bottom;endArrow=block;curved=0;rounded=0;" edge="1" parent="1" source="JHMAfL3EiL-7cQnIGbuX-6" target="JHMAfL3EiL-7cQnIGbuX-13">
          <mxGeometry width="80" relative="1" as="geometry">
            <mxPoint x="2201" y="849" as="sourcePoint" />
            <mxPoint x="2281" y="849" as="targetPoint" />
          </mxGeometry>
        </mxCell>
        <mxCell id="JHMAfL3EiL-7cQnIGbuX-17" value="status update" style="html=1;verticalAlign=bottom;endArrow=block;curved=0;rounded=0;" edge="1" parent="1">
          <mxGeometry width="80" relative="1" as="geometry">
            <mxPoint x="2386" y="989" as="sourcePoint" />
            <mxPoint x="2156" y="989" as="targetPoint" />
          </mxGeometry>
        </mxCell>
      </root>
    </mxGraphModel>
  </diagram>
  <diagram id="8Vu5w5WWNCFVpYrVN5RC" name="C4 - Context">
    <mxGraphModel dx="836" dy="1261" grid="1" gridSize="10" guides="1" tooltips="1" connect="1" arrows="1" fold="1" page="1" pageScale="1" pageWidth="1169" pageHeight="827" math="0" shadow="0">
      <root>
        <mxCell id="0" />
        <mxCell id="1" parent="0" />
        <mxCell id="vC8ioawWYHzx8OwK0g_d-10" style="edgeStyle=orthogonalEdgeStyle;rounded=0;orthogonalLoop=1;jettySize=auto;html=1;entryX=0.5;entryY=0;entryDx=0;entryDy=0;" parent="1" source="vC8ioawWYHzx8OwK0g_d-1" target="vC8ioawWYHzx8OwK0g_d-3" edge="1">
          <mxGeometry relative="1" as="geometry" />
        </mxCell>
        <mxCell id="vC8ioawWYHzx8OwK0g_d-11" value="Create Account&lt;br&gt;Create Order" style="edgeLabel;html=1;align=center;verticalAlign=middle;resizable=0;points=[];" parent="vC8ioawWYHzx8OwK0g_d-10" vertex="1" connectable="0">
          <mxGeometry x="-0.24" relative="1" as="geometry">
            <mxPoint as="offset" />
          </mxGeometry>
        </mxCell>
        <mxCell id="vC8ioawWYHzx8OwK0g_d-1" value="&lt;br&gt;&lt;br&gt;&lt;br&gt;&lt;br&gt;Pizzeria Customer&lt;br&gt;(person)&lt;br&gt;&lt;br&gt;&lt;div style=&quot;&quot;&gt;&lt;span style=&quot;background-color: initial;&quot;&gt;A customer of the pizzeria with personal account.&lt;/span&gt;&lt;/div&gt;" style="shape=actor;whiteSpace=wrap;html=1;" parent="1" vertex="1">
          <mxGeometry x="165" y="40" width="180" height="140" as="geometry" />
        </mxCell>
        <mxCell id="vC8ioawWYHzx8OwK0g_d-12" style="edgeStyle=orthogonalEdgeStyle;rounded=0;orthogonalLoop=1;jettySize=auto;html=1;entryX=0.5;entryY=0;entryDx=0;entryDy=0;" parent="1" source="vC8ioawWYHzx8OwK0g_d-3" target="vC8ioawWYHzx8OwK0g_d-5" edge="1">
          <mxGeometry relative="1" as="geometry" />
        </mxCell>
        <mxCell id="vC8ioawWYHzx8OwK0g_d-13" value="Create Account&lt;br&gt;Login User&lt;br&gt;Create Order" style="edgeLabel;html=1;align=center;verticalAlign=middle;resizable=0;points=[];" parent="vC8ioawWYHzx8OwK0g_d-12" vertex="1" connectable="0">
          <mxGeometry x="-0.2618" relative="1" as="geometry">
            <mxPoint as="offset" />
          </mxGeometry>
        </mxCell>
        <mxCell id="vC8ioawWYHzx8OwK0g_d-3" value="Pizzeria Web Client&lt;br&gt;(Software System)&lt;br&gt;&lt;br&gt;Allows customers to create personal account, to create and track their orders" style="rounded=0;whiteSpace=wrap;html=1;" parent="1" vertex="1">
          <mxGeometry x="140" y="290" width="230" height="100" as="geometry" />
        </mxCell>
        <mxCell id="vC8ioawWYHzx8OwK0g_d-16" style="edgeStyle=orthogonalEdgeStyle;rounded=0;orthogonalLoop=1;jettySize=auto;html=1;entryX=0.5;entryY=0;entryDx=0;entryDy=0;" parent="1" source="vC8ioawWYHzx8OwK0g_d-4" target="vC8ioawWYHzx8OwK0g_d-6" edge="1">
          <mxGeometry relative="1" as="geometry" />
        </mxCell>
        <mxCell id="vC8ioawWYHzx8OwK0g_d-17" value="Create Drone&lt;br&gt;Get registered drones and flights" style="edgeLabel;html=1;align=center;verticalAlign=middle;resizable=0;points=[];" parent="vC8ioawWYHzx8OwK0g_d-16" vertex="1" connectable="0">
          <mxGeometry x="-0.0303" y="-1" relative="1" as="geometry">
            <mxPoint as="offset" />
          </mxGeometry>
        </mxCell>
        <mxCell id="vC8ioawWYHzx8OwK0g_d-4" value="Operating Web Client&lt;br&gt;(Software System)&lt;br&gt;&lt;br&gt;Allows operator to create drones, monitor drones and track ordered flights." style="rounded=0;whiteSpace=wrap;html=1;" parent="1" vertex="1">
          <mxGeometry x="440" y="290" width="250" height="100" as="geometry" />
        </mxCell>
        <mxCell id="vC8ioawWYHzx8OwK0g_d-18" style="edgeStyle=orthogonalEdgeStyle;rounded=0;orthogonalLoop=1;jettySize=auto;html=1;entryX=0;entryY=0.5;entryDx=0;entryDy=0;" parent="1" source="vC8ioawWYHzx8OwK0g_d-5" target="vC8ioawWYHzx8OwK0g_d-6" edge="1">
          <mxGeometry relative="1" as="geometry" />
        </mxCell>
        <mxCell id="vC8ioawWYHzx8OwK0g_d-19" value="Register &lt;br&gt;new flights" style="edgeLabel;html=1;align=center;verticalAlign=middle;resizable=0;points=[];" parent="vC8ioawWYHzx8OwK0g_d-18" vertex="1" connectable="0">
          <mxGeometry x="0.2684" y="-2" relative="1" as="geometry">
            <mxPoint x="-9" y="-2" as="offset" />
          </mxGeometry>
        </mxCell>
        <mxCell id="vC8ioawWYHzx8OwK0g_d-5" value="Pizzeria backend&lt;br&gt;(Software System)&lt;br&gt;&lt;br&gt;Stores customer data: accounts. Handles customer orders" style="rounded=0;whiteSpace=wrap;html=1;" parent="1" vertex="1">
          <mxGeometry x="140" y="500" width="230" height="100" as="geometry" />
        </mxCell>
        <mxCell id="vC8ioawWYHzx8OwK0g_d-20" style="edgeStyle=orthogonalEdgeStyle;rounded=0;orthogonalLoop=1;jettySize=auto;html=1;entryX=0;entryY=0.5;entryDx=0;entryDy=0;" parent="1" source="vC8ioawWYHzx8OwK0g_d-6" target="vC8ioawWYHzx8OwK0g_d-8" edge="1">
          <mxGeometry relative="1" as="geometry" />
        </mxCell>
        <mxCell id="vC8ioawWYHzx8OwK0g_d-21" value="Publish&lt;br&gt;ordered &lt;br&gt;flights" style="edgeLabel;html=1;align=center;verticalAlign=middle;resizable=0;points=[];" parent="vC8ioawWYHzx8OwK0g_d-20" vertex="1" connectable="0">
          <mxGeometry x="-0.5692" relative="1" as="geometry">
            <mxPoint x="32" as="offset" />
          </mxGeometry>
        </mxCell>
        <mxCell id="vC8ioawWYHzx8OwK0g_d-6" value="Fleet Service&lt;br&gt;(Software System)&lt;br&gt;&lt;br&gt;Handles CRUD operations on drones and deliveries. Stores flight orders" style="rounded=0;whiteSpace=wrap;html=1;" parent="1" vertex="1">
          <mxGeometry x="455" y="500" width="220" height="100" as="geometry" />
        </mxCell>
        <mxCell id="vC8ioawWYHzx8OwK0g_d-24" style="edgeStyle=orthogonalEdgeStyle;rounded=0;orthogonalLoop=1;jettySize=auto;html=1;entryX=0.5;entryY=0;entryDx=0;entryDy=0;" parent="1" source="vC8ioawWYHzx8OwK0g_d-7" target="vC8ioawWYHzx8OwK0g_d-8" edge="1">
          <mxGeometry relative="1" as="geometry" />
        </mxCell>
        <mxCell id="vC8ioawWYHzx8OwK0g_d-25" value="Listen for new orders" style="edgeLabel;html=1;align=center;verticalAlign=middle;resizable=0;points=[];" parent="vC8ioawWYHzx8OwK0g_d-24" vertex="1" connectable="0">
          <mxGeometry x="-0.2155" y="-1" relative="1" as="geometry">
            <mxPoint as="offset" />
          </mxGeometry>
        </mxCell>
        <mxCell id="vC8ioawWYHzx8OwK0g_d-7" value="&lt;p&gt;&lt;span style=&quot;background-color: initial; font-size: 12px; font-weight: normal;&quot;&gt;Drone&lt;/span&gt;&lt;/p&gt;&lt;p&gt;&lt;span style=&quot;background-color: initial;&quot;&gt;(Hardware and Software system)&lt;/span&gt;&lt;/p&gt;&lt;p&gt;&lt;span style=&quot;background-color: initial;&quot;&gt;Drone that is delivering food.&lt;/span&gt;&lt;/p&gt;" style="rounded=0;whiteSpace=wrap;html=1;" parent="1" vertex="1">
          <mxGeometry x="770" y="275" width="260" height="130" as="geometry" />
        </mxCell>
        <mxCell id="vC8ioawWYHzx8OwK0g_d-8" value="Message Queue&lt;br&gt;(Software System)&lt;br&gt;&lt;br&gt;Queuing messages and accepting publishing and subscriptions" style="rounded=0;whiteSpace=wrap;html=1;" parent="1" vertex="1">
          <mxGeometry x="785" y="495" width="230" height="110" as="geometry" />
        </mxCell>
        <mxCell id="vC8ioawWYHzx8OwK0g_d-14" style="edgeStyle=orthogonalEdgeStyle;rounded=0;orthogonalLoop=1;jettySize=auto;html=1;entryX=0.5;entryY=0;entryDx=0;entryDy=0;" parent="1" source="vC8ioawWYHzx8OwK0g_d-9" target="vC8ioawWYHzx8OwK0g_d-4" edge="1">
          <mxGeometry relative="1" as="geometry" />
        </mxCell>
        <mxCell id="vC8ioawWYHzx8OwK0g_d-15" value="Create Drone&lt;br&gt;Get Drones&lt;br&gt;Get registered flights" style="edgeLabel;html=1;align=center;verticalAlign=middle;resizable=0;points=[];" parent="vC8ioawWYHzx8OwK0g_d-14" vertex="1" connectable="0">
          <mxGeometry x="0.0303" y="-1" relative="1" as="geometry">
            <mxPoint as="offset" />
          </mxGeometry>
        </mxCell>
        <mxCell id="vC8ioawWYHzx8OwK0g_d-9" value="&lt;br&gt;&lt;br&gt;&lt;br&gt;&lt;br&gt;Drone Operator&lt;br&gt;(person)&lt;br&gt;&lt;br&gt;&lt;div style=&quot;&quot;&gt;&lt;span style=&quot;background-color: initial;&quot;&gt;A drone operator&lt;/span&gt;&lt;/div&gt;" style="shape=actor;whiteSpace=wrap;html=1;" parent="1" vertex="1">
          <mxGeometry x="475" y="40" width="180" height="140" as="geometry" />
        </mxCell>
        <mxCell id="vC8ioawWYHzx8OwK0g_d-26" value="&lt;br&gt;&lt;br&gt;Person, Customer" style="shape=actor;whiteSpace=wrap;html=1;" parent="1" vertex="1">
          <mxGeometry x="250" y="640" width="180" height="140" as="geometry" />
        </mxCell>
        <mxCell id="vC8ioawWYHzx8OwK0g_d-27" value="Software and/or Hardware System" style="rounded=0;whiteSpace=wrap;html=1;" parent="1" vertex="1">
          <mxGeometry x="490" y="660" width="230" height="100" as="geometry" />
        </mxCell>
        <mxCell id="vC8ioawWYHzx8OwK0g_d-29" value="" style="endArrow=classic;html=1;rounded=0;" parent="1" edge="1">
          <mxGeometry width="50" height="50" relative="1" as="geometry">
            <mxPoint x="780" y="720" as="sourcePoint" />
            <mxPoint x="918.4848484848485" y="720" as="targetPoint" />
          </mxGeometry>
        </mxCell>
        <mxCell id="vC8ioawWYHzx8OwK0g_d-30" value="Relationship" style="edgeLabel;html=1;align=center;verticalAlign=middle;resizable=0;points=[];" parent="vC8ioawWYHzx8OwK0g_d-29" vertex="1" connectable="0">
          <mxGeometry x="0.119" y="-1" relative="1" as="geometry">
            <mxPoint as="offset" />
          </mxGeometry>
        </mxCell>
      </root>
    </mxGraphModel>
  </diagram>
  <diagram id="zRYq-ZxfD5jmeoiHotkX" name="C4 - Container">
    <mxGraphModel dx="2269" dy="3423" grid="1" gridSize="10" guides="1" tooltips="1" connect="1" arrows="1" fold="1" page="1" pageScale="1" pageWidth="2336" pageHeight="1654" math="0" shadow="0">
      <root>
        <mxCell id="0" />
        <mxCell id="1" parent="0" />
        <object placeholders="1" c4Type="Pizzeria Web Client" c4Container="Container" c4Technology="JavaScript" c4Description="Web client for pizzeria to make orders and manage personal accounts" label="&lt;font style=&quot;font-size: 16px&quot;&gt;&lt;b&gt;%c4Type%&lt;/b&gt;&lt;/font&gt;&lt;div&gt;[%c4Container%:&amp;nbsp;%c4Technology%]&lt;/div&gt;&lt;br&gt;&lt;div&gt;&lt;font style=&quot;font-size: 11px&quot;&gt;&lt;font color=&quot;#E6E6E6&quot;&gt;%c4Description%&lt;/font&gt;&lt;/div&gt;" id="w3aXWvR-8BYG4ACYkMjc-3">
          <mxCell style="shape=mxgraph.c4.webBrowserContainer2;whiteSpace=wrap;html=1;boundedLbl=1;rounded=0;labelBackgroundColor=none;strokeColor=#118ACD;fillColor=#23A2D9;strokeColor=#118ACD;strokeColor2=#0E7DAD;fontSize=12;fontColor=#ffffff;align=center;metaEdit=1;points=[[0.5,0,0],[1,0.25,0],[1,0.5,0],[1,0.75,0],[0.5,1,0],[0,0.75,0],[0,0.5,0],[0,0.25,0]];resizable=0;" vertex="1" parent="1">
            <mxGeometry x="1589" y="482" width="240" height="160" as="geometry" />
          </mxCell>
        </object>
        <object placeholders="1" c4Type="Operating Web Client" c4Container="Container" c4Technology="React, JavaScript" c4Description="Web client to register new drones, track them and track flights." label="&lt;font style=&quot;font-size: 16px&quot;&gt;&lt;b&gt;%c4Type%&lt;/b&gt;&lt;/font&gt;&lt;div&gt;[%c4Container%:&amp;nbsp;%c4Technology%]&lt;/div&gt;&lt;br&gt;&lt;div&gt;&lt;font style=&quot;font-size: 11px&quot;&gt;&lt;font color=&quot;#E6E6E6&quot;&gt;%c4Description%&lt;/font&gt;&lt;/div&gt;" id="w3aXWvR-8BYG4ACYkMjc-4">
          <mxCell style="shape=mxgraph.c4.webBrowserContainer2;whiteSpace=wrap;html=1;boundedLbl=1;rounded=0;labelBackgroundColor=none;strokeColor=#118ACD;fillColor=#23A2D9;strokeColor=#118ACD;strokeColor2=#0E7DAD;fontSize=12;fontColor=#ffffff;align=center;metaEdit=1;points=[[0.5,0,0],[1,0.25,0],[1,0.5,0],[1,0.75,0],[0.5,1,0],[0,0.75,0],[0,0.5,0],[0,0.25,0]];resizable=0;" vertex="1" parent="1">
            <mxGeometry x="949" y="482" width="240" height="160" as="geometry" />
          </mxCell>
        </object>
        <object placeholders="1" c4Name="Drone Operator" c4Type="Person" c4Description="A drone Operator" label="&lt;font style=&quot;font-size: 16px&quot;&gt;&lt;b&gt;%c4Name%&lt;/b&gt;&lt;/font&gt;&lt;div&gt;[%c4Type%]&lt;/div&gt;&lt;br&gt;&lt;div&gt;&lt;font style=&quot;font-size: 11px&quot;&gt;&lt;font color=&quot;#cccccc&quot;&gt;%c4Description%&lt;/font&gt;&lt;/div&gt;" id="w3aXWvR-8BYG4ACYkMjc-8">
          <mxCell style="html=1;fontSize=11;dashed=0;whiteSpace=wrap;fillColor=#083F75;strokeColor=#06315C;fontColor=#ffffff;shape=mxgraph.c4.person2;align=center;metaEdit=1;points=[[0.5,0,0],[1,0.5,0],[1,0.75,0],[0.75,1,0],[0.5,1,0],[0.25,1,0],[0,0.75,0],[0,0.5,0]];resizable=0;" vertex="1" parent="1">
            <mxGeometry x="969" y="152" width="200" height="180" as="geometry" />
          </mxCell>
        </object>
        <object placeholders="1" c4Name="Pizzeria Customer" c4Type="Person" c4Description="A customer of the pizzeria with personal account" label="&lt;font style=&quot;font-size: 16px&quot;&gt;&lt;b&gt;%c4Name%&lt;/b&gt;&lt;/font&gt;&lt;div&gt;[%c4Type%]&lt;/div&gt;&lt;br&gt;&lt;div&gt;&lt;font style=&quot;font-size: 11px&quot;&gt;&lt;font color=&quot;#cccccc&quot;&gt;%c4Description%&lt;/font&gt;&lt;/div&gt;" id="w3aXWvR-8BYG4ACYkMjc-9">
          <mxCell style="html=1;fontSize=11;dashed=0;whiteSpace=wrap;fillColor=#083F75;strokeColor=#06315C;fontColor=#ffffff;shape=mxgraph.c4.person2;align=center;metaEdit=1;points=[[0.5,0,0],[1,0.5,0],[1,0.75,0],[0.75,1,0],[0.5,1,0],[0.25,1,0],[0,0.75,0],[0,0.5,0]];resizable=0;" vertex="1" parent="1">
            <mxGeometry x="1609" y="152" width="200" height="180" as="geometry" />
          </mxCell>
        </object>
        <object placeholders="1" c4Name="Fleet Service" c4Type="Container: Java and Spring MVC" c4Description="Provides CRUD operationds for drones and&#xa;flights via JSON/HTTP. Manages orders" label="&lt;font style=&quot;font-size: 16px&quot;&gt;&lt;b&gt;%c4Name%&lt;/b&gt;&lt;/font&gt;&lt;div&gt;[%c4Type%]&lt;/div&gt;&lt;br&gt;&lt;div&gt;&lt;font style=&quot;font-size: 11px&quot;&gt;&lt;font color=&quot;#cccccc&quot;&gt;%c4Description%&lt;/font&gt;&lt;/div&gt;" id="w3aXWvR-8BYG4ACYkMjc-10">
          <mxCell style="rounded=1;whiteSpace=wrap;html=1;labelBackgroundColor=none;fillColor=#1061B0;fontColor=#ffffff;align=center;arcSize=10;strokeColor=#0D5091;metaEdit=1;resizable=0;points=[[0.25,0,0],[0.5,0,0],[0.75,0,0],[1,0.25,0],[1,0.5,0],[1,0.75,0],[0.75,1,0],[0.5,1,0],[0.25,1,0],[0,0.75,0],[0,0.5,0],[0,0.25,0]];" vertex="1" parent="1">
            <mxGeometry x="949" y="812" width="240" height="120" as="geometry" />
          </mxCell>
        </object>
        <object placeholders="1" c4Name="Pizzeria Backend" c4Type="Container: TypeScript and NestJS" c4Description="Handles customer accounts, new orders" label="&lt;font style=&quot;font-size: 16px&quot;&gt;&lt;b&gt;%c4Name%&lt;/b&gt;&lt;/font&gt;&lt;div&gt;[%c4Type%]&lt;/div&gt;&lt;br&gt;&lt;div&gt;&lt;font style=&quot;font-size: 11px&quot;&gt;&lt;font color=&quot;#cccccc&quot;&gt;%c4Description%&lt;/font&gt;&lt;/div&gt;" id="w3aXWvR-8BYG4ACYkMjc-11">
          <mxCell style="rounded=1;whiteSpace=wrap;html=1;labelBackgroundColor=none;fillColor=#1061B0;fontColor=#ffffff;align=center;arcSize=10;strokeColor=#0D5091;metaEdit=1;resizable=0;points=[[0.25,0,0],[0.5,0,0],[0.75,0,0],[1,0.25,0],[1,0.5,0],[1,0.75,0],[0.75,1,0],[0.5,1,0],[0.25,1,0],[0,0.75,0],[0,0.5,0],[0,0.25,0]];" vertex="1" parent="1">
            <mxGeometry x="1589" y="812" width="240" height="120" as="geometry" />
          </mxCell>
        </object>
        <object placeholders="1" c4Name="Drone" c4Type="Container: Java and Spring MVC" c4Description="Drone that is delivering order." label="&lt;font style=&quot;font-size: 16px&quot;&gt;&lt;b&gt;%c4Name%&lt;/b&gt;&lt;/font&gt;&lt;div&gt;[%c4Type%]&lt;/div&gt;&lt;br&gt;&lt;div&gt;&lt;font style=&quot;font-size: 11px&quot;&gt;&lt;font color=&quot;#cccccc&quot;&gt;%c4Description%&lt;/font&gt;&lt;/div&gt;" id="w3aXWvR-8BYG4ACYkMjc-13">
          <mxCell style="rounded=1;whiteSpace=wrap;html=1;labelBackgroundColor=none;fillColor=#1061B0;fontColor=#ffffff;align=center;arcSize=10;strokeColor=#0D5091;metaEdit=1;resizable=0;points=[[0.25,0,0],[0.5,0,0],[0.75,0,0],[1,0.25,0],[1,0.5,0],[1,0.75,0],[0.75,1,0],[0.5,1,0],[0.25,1,0],[0,0.75,0],[0,0.5,0],[0,0.25,0]];" vertex="1" parent="1">
            <mxGeometry x="549" y="502" width="240" height="120" as="geometry" />
          </mxCell>
        </object>
        <object placeholders="1" c4Type="Message Queue" c4Container="Container" c4Technology="RabbitMQ" c4Description="Queuing flight orders" label="&lt;font style=&quot;font-size: 16px&quot;&gt;&lt;b&gt;%c4Type%&lt;/b&gt;&lt;/font&gt;&lt;div&gt;[%c4Container%:&amp;nbsp;%c4Technology%]&lt;/div&gt;&lt;br&gt;&lt;div&gt;&lt;font style=&quot;font-size: 11px&quot;&gt;&lt;font color=&quot;#E6E6E6&quot;&gt;%c4Description%&lt;/font&gt;&lt;/div&gt;" id="w3aXWvR-8BYG4ACYkMjc-15">
          <mxCell style="shape=cylinder3;size=15;direction=south;whiteSpace=wrap;html=1;boundedLbl=1;rounded=0;labelBackgroundColor=none;fillColor=#23A2D9;fontSize=12;fontColor=#ffffff;align=center;strokeColor=#0E7DAD;metaEdit=1;points=[[0.5,0,0],[1,0.25,0],[1,0.5,0],[1,0.75,0],[0.5,1,0],[0,0.75,0],[0,0.5,0],[0,0.25,0]];resizable=0;" vertex="1" parent="1">
            <mxGeometry x="549" y="812" width="240" height="120" as="geometry" />
          </mxCell>
        </object>
        <object placeholders="1" c4Type="Database" c4Container="Database" c4Technology="Mongo Database" c4Description="Stores users, registered drones,&#xa;registered flights, menu itemscontainer role/responsibility." label="&lt;font style=&quot;font-size: 16px&quot;&gt;&lt;b&gt;%c4Type%&lt;/b&gt;&lt;/font&gt;&lt;div&gt;[%c4Container%:&amp;nbsp;%c4Technology%]&lt;/div&gt;&lt;br&gt;&lt;div&gt;&lt;font style=&quot;font-size: 11px&quot;&gt;&lt;font color=&quot;#E6E6E6&quot;&gt;%c4Description%&lt;/font&gt;&lt;/div&gt;" id="w3aXWvR-8BYG4ACYkMjc-16">
          <mxCell style="shape=cylinder3;size=15;whiteSpace=wrap;html=1;boundedLbl=1;rounded=0;labelBackgroundColor=none;fillColor=#23A2D9;fontSize=12;fontColor=#ffffff;align=center;strokeColor=#0E7DAD;metaEdit=1;points=[[0.5,0,0],[1,0.25,0],[1,0.5,0],[1,0.75,0],[0.5,1,0],[0,0.75,0],[0,0.5,0],[0,0.25,0]];resizable=0;" vertex="1" parent="1">
            <mxGeometry x="1269" y="1052" width="240" height="120" as="geometry" />
          </mxCell>
        </object>
        <object placeholders="1" c4Name="Person, Custoemr" label="&lt;font style=&quot;font-size: 16px&quot;&gt;&lt;b&gt;%c4Name%&lt;/b&gt;&lt;/font&gt;&lt;div&gt;[%c4Type%]&lt;/div&gt;&lt;br&gt;&lt;div&gt;&lt;font style=&quot;font-size: 11px&quot;&gt;&lt;font color=&quot;#cccccc&quot;&gt;%c4Description%&lt;/font&gt;&lt;/div&gt;" id="w3aXWvR-8BYG4ACYkMjc-17">
          <mxCell style="html=1;fontSize=11;dashed=0;whiteSpace=wrap;fillColor=#083F75;strokeColor=#06315C;fontColor=#ffffff;shape=mxgraph.c4.person2;align=center;metaEdit=1;points=[[0.5,0,0],[1,0.5,0],[1,0.75,0],[0.75,1,0],[0.5,1,0],[0.25,1,0],[0,0.75,0],[0,0.5,0]];resizable=0;" vertex="1" parent="1">
            <mxGeometry x="639" y="1322" width="200" height="180" as="geometry" />
          </mxCell>
        </object>
        <object placeholders="1" c4Name="Software System" label="&lt;font style=&quot;font-size: 16px&quot;&gt;&lt;b&gt;%c4Name%&lt;/b&gt;&lt;/font&gt;&lt;div&gt;[%c4Type%]&lt;/div&gt;&lt;br&gt;&lt;div&gt;&lt;font style=&quot;font-size: 11px&quot;&gt;&lt;font color=&quot;#cccccc&quot;&gt;%c4Description%&lt;/font&gt;&lt;/div&gt;" id="w3aXWvR-8BYG4ACYkMjc-18">
          <mxCell style="rounded=1;whiteSpace=wrap;html=1;labelBackgroundColor=none;fillColor=#1061B0;fontColor=#ffffff;align=center;arcSize=10;strokeColor=#0D5091;metaEdit=1;resizable=0;points=[[0.25,0,0],[0.5,0,0],[0.75,0,0],[1,0.25,0],[1,0.5,0],[1,0.75,0],[0.75,1,0],[0.5,1,0],[0.25,1,0],[0,0.75,0],[0,0.5,0],[0,0.25,0]];" vertex="1" parent="1">
            <mxGeometry x="929" y="1352" width="240" height="120" as="geometry" />
          </mxCell>
        </object>
        <object placeholders="1" c4Type="Message Queue" label="&lt;font style=&quot;font-size: 16px&quot;&gt;&lt;b&gt;%c4Type%&lt;/b&gt;&lt;/font&gt;&lt;div&gt;[%c4Container%:&amp;nbsp;%c4Technology%]&lt;/div&gt;&lt;br&gt;&lt;div&gt;&lt;font style=&quot;font-size: 11px&quot;&gt;&lt;font color=&quot;#E6E6E6&quot;&gt;%c4Description%&lt;/font&gt;&lt;/div&gt;" id="w3aXWvR-8BYG4ACYkMjc-19">
          <mxCell style="shape=cylinder3;size=15;direction=south;whiteSpace=wrap;html=1;boundedLbl=1;rounded=0;labelBackgroundColor=none;fillColor=#23A2D9;fontSize=12;fontColor=#ffffff;align=center;strokeColor=#0E7DAD;metaEdit=1;points=[[0.5,0,0],[1,0.25,0],[1,0.5,0],[1,0.75,0],[0.5,1,0],[0,0.75,0],[0,0.5,0],[0,0.25,0]];resizable=0;" vertex="1" parent="1">
            <mxGeometry x="1259" y="1352" width="240" height="120" as="geometry" />
          </mxCell>
        </object>
        <object placeholders="1" c4Type="Container, Database" label="&lt;font style=&quot;font-size: 16px&quot;&gt;&lt;b&gt;%c4Type%&lt;/b&gt;&lt;/font&gt;&lt;div&gt;[%c4Container%:&amp;nbsp;%c4Technology%]&lt;/div&gt;&lt;br&gt;&lt;div&gt;&lt;font style=&quot;font-size: 11px&quot;&gt;&lt;font color=&quot;#E6E6E6&quot;&gt;%c4Description%&lt;/font&gt;&lt;/div&gt;" id="w3aXWvR-8BYG4ACYkMjc-20">
          <mxCell style="shape=cylinder3;size=15;whiteSpace=wrap;html=1;boundedLbl=1;rounded=0;labelBackgroundColor=none;fillColor=#23A2D9;fontSize=12;fontColor=#ffffff;align=center;strokeColor=#0E7DAD;metaEdit=1;points=[[0.5,0,0],[1,0.25,0],[1,0.5,0],[1,0.75,0],[0.5,1,0],[0,0.75,0],[0,0.5,0],[0,0.25,0]];resizable=0;" vertex="1" parent="1">
            <mxGeometry x="1589" y="1352" width="240" height="120" as="geometry" />
          </mxCell>
        </object>
        <object placeholders="1" c4Type="Relationship" id="w3aXWvR-8BYG4ACYkMjc-22">
          <mxCell style="endArrow=blockThin;html=1;fontSize=12;fontColor=#404040;strokeWidth=1;endFill=1;strokeColor=#828282;elbow=vertical;metaEdit=1;endSize=16;startSize=16;jumpStyle=arc;jumpSize=16;rounded=0;edgeStyle=orthogonalEdgeStyle;" edge="1" parent="1">
            <mxGeometry width="240" relative="1" as="geometry">
              <mxPoint x="1920" y="1411.52" as="sourcePoint" />
              <mxPoint x="2160" y="1411.52" as="targetPoint" />
            </mxGeometry>
          </mxCell>
        </object>
        <mxCell id="w3aXWvR-8BYG4ACYkMjc-23" value="RelationShip" style="edgeLabel;html=1;align=center;verticalAlign=middle;resizable=0;points=[];arcSize=13;" vertex="1" connectable="0" parent="w3aXWvR-8BYG4ACYkMjc-22">
          <mxGeometry x="-0.2776" relative="1" as="geometry">
            <mxPoint x="33" as="offset" />
          </mxGeometry>
        </mxCell>
        <object placeholders="1" c4Type="" c4Technology="NoSql" c4Description="Reads from and writes to" label="&lt;div style=&quot;text-align: left&quot;&gt;&lt;div style=&quot;text-align: center&quot;&gt;&lt;b&gt;%c4Description%&lt;/b&gt;&lt;/div&gt;&lt;div style=&quot;text-align: center&quot;&gt;[%c4Technology%]&lt;/div&gt;&lt;/div&gt;" id="UYhcn5JIVmEAN_vkHW_w-4">
          <mxCell style="endArrow=blockThin;html=1;fontSize=10;fontColor=#404040;strokeWidth=1;endFill=1;strokeColor=#828282;elbow=vertical;metaEdit=1;endSize=14;startSize=14;jumpStyle=arc;jumpSize=16;rounded=0;edgeStyle=orthogonalEdgeStyle;exitX=0.5;exitY=1;exitDx=0;exitDy=0;exitPerimeter=0;entryX=0;entryY=0.5;entryDx=0;entryDy=0;entryPerimeter=0;" edge="1" parent="1" source="w3aXWvR-8BYG4ACYkMjc-10" target="w3aXWvR-8BYG4ACYkMjc-16">
            <mxGeometry width="240" relative="1" as="geometry">
              <mxPoint x="1049" y="1002" as="sourcePoint" />
              <mxPoint x="1289" y="1002" as="targetPoint" />
            </mxGeometry>
          </mxCell>
        </object>
        <object placeholders="1" c4Type="" c4Technology="NoSql" c4Description="Reads from and writes to" label="&lt;div style=&quot;text-align: left&quot;&gt;&lt;div style=&quot;text-align: center&quot;&gt;&lt;b&gt;%c4Description%&lt;/b&gt;&lt;/div&gt;&lt;div style=&quot;text-align: center&quot;&gt;[%c4Technology%]&lt;/div&gt;&lt;/div&gt;" id="UYhcn5JIVmEAN_vkHW_w-5">
          <mxCell style="endArrow=blockThin;html=1;fontSize=10;fontColor=#404040;strokeWidth=1;endFill=1;strokeColor=#828282;elbow=vertical;metaEdit=1;endSize=14;startSize=14;jumpStyle=arc;jumpSize=16;rounded=0;edgeStyle=orthogonalEdgeStyle;entryX=1;entryY=0.5;entryDx=0;entryDy=0;entryPerimeter=0;exitX=0.5;exitY=1;exitDx=0;exitDy=0;exitPerimeter=0;" edge="1" parent="1" source="w3aXWvR-8BYG4ACYkMjc-11" target="w3aXWvR-8BYG4ACYkMjc-16">
            <mxGeometry width="240" relative="1" as="geometry">
              <mxPoint x="1249" y="852" as="sourcePoint" />
              <mxPoint x="1489" y="852" as="targetPoint" />
            </mxGeometry>
          </mxCell>
        </object>
        <object placeholders="1" c4Type="&#xa;" c4Description="Enqueue flight order" label="&lt;div style=&quot;text-align: left&quot;&gt;&lt;div style=&quot;text-align: center&quot;&gt;&lt;b&gt;%c4Description%&lt;/b&gt;&lt;/div&gt;" id="UYhcn5JIVmEAN_vkHW_w-7">
          <mxCell style="endArrow=blockThin;html=1;fontSize=10;fontColor=#404040;strokeWidth=1;endFill=1;strokeColor=#828282;elbow=vertical;metaEdit=1;endSize=14;startSize=14;jumpStyle=arc;jumpSize=16;rounded=0;edgeStyle=orthogonalEdgeStyle;entryX=0.5;entryY=0;entryDx=0;entryDy=0;entryPerimeter=0;exitX=0;exitY=0.5;exitDx=0;exitDy=0;exitPerimeter=0;" edge="1" parent="1" source="w3aXWvR-8BYG4ACYkMjc-10" target="w3aXWvR-8BYG4ACYkMjc-15">
            <mxGeometry width="240" relative="1" as="geometry">
              <mxPoint x="769" y="1012" as="sourcePoint" />
              <mxPoint x="1009" y="1012" as="targetPoint" />
            </mxGeometry>
          </mxCell>
        </object>
        <object placeholders="1" c4Type="" c4Description="Reads Queue Messages" label="&lt;div style=&quot;text-align: left&quot;&gt;&lt;div style=&quot;text-align: center&quot;&gt;&lt;b&gt;%c4Description%&lt;/b&gt;&lt;/div&gt;" id="UYhcn5JIVmEAN_vkHW_w-8">
          <mxCell style="endArrow=blockThin;html=1;fontSize=10;fontColor=#404040;strokeWidth=1;endFill=1;strokeColor=#828282;elbow=vertical;metaEdit=1;endSize=14;startSize=14;jumpStyle=arc;jumpSize=16;rounded=0;edgeStyle=orthogonalEdgeStyle;exitX=0.5;exitY=1;exitDx=0;exitDy=0;exitPerimeter=0;entryX=0;entryY=0.5;entryDx=0;entryDy=0;entryPerimeter=0;" edge="1" parent="1" source="w3aXWvR-8BYG4ACYkMjc-13" target="w3aXWvR-8BYG4ACYkMjc-15">
            <mxGeometry width="240" relative="1" as="geometry">
              <mxPoint x="579" y="822" as="sourcePoint" />
              <mxPoint x="819" y="822" as="targetPoint" />
            </mxGeometry>
          </mxCell>
        </object>
        <object placeholders="1" c4Type="" c4Technology="JSON/HTTP" c4Description="Makes API calls" label="&lt;div style=&quot;text-align: left&quot;&gt;&lt;div style=&quot;text-align: center&quot;&gt;&lt;b&gt;%c4Description%&lt;/b&gt;&lt;/div&gt;&lt;div style=&quot;text-align: center&quot;&gt;[%c4Technology%]&lt;/div&gt;&lt;/div&gt;" id="UYhcn5JIVmEAN_vkHW_w-9">
          <mxCell style="endArrow=blockThin;html=1;fontSize=10;fontColor=#404040;strokeWidth=1;endFill=1;strokeColor=#828282;elbow=vertical;metaEdit=1;endSize=14;startSize=14;jumpStyle=arc;jumpSize=16;rounded=0;edgeStyle=orthogonalEdgeStyle;entryX=0.5;entryY=0;entryDx=0;entryDy=0;entryPerimeter=0;" edge="1" parent="1" source="w3aXWvR-8BYG4ACYkMjc-4" target="w3aXWvR-8BYG4ACYkMjc-10">
            <mxGeometry width="240" relative="1" as="geometry">
              <mxPoint x="889" y="862" as="sourcePoint" />
              <mxPoint x="1129" y="862" as="targetPoint" />
            </mxGeometry>
          </mxCell>
        </object>
        <object placeholders="1" c4Type="" c4Technology="JSON/HTTP" c4Description="Makes API calls" label="&lt;div style=&quot;text-align: left&quot;&gt;&lt;div style=&quot;text-align: center&quot;&gt;&lt;b&gt;%c4Description%&lt;/b&gt;&lt;/div&gt;&lt;div style=&quot;text-align: center&quot;&gt;[%c4Technology%]&lt;/div&gt;&lt;/div&gt;" id="UYhcn5JIVmEAN_vkHW_w-10">
          <mxCell style="endArrow=blockThin;html=1;fontSize=10;fontColor=#404040;strokeWidth=1;endFill=1;strokeColor=#828282;elbow=vertical;metaEdit=1;endSize=14;startSize=14;jumpStyle=arc;jumpSize=16;rounded=0;edgeStyle=orthogonalEdgeStyle;entryX=0.5;entryY=0;entryDx=0;entryDy=0;entryPerimeter=0;" edge="1" parent="1">
            <mxGeometry width="240" relative="1" as="geometry">
              <mxPoint x="1708.23" y="642" as="sourcePoint" />
              <mxPoint x="1708.23" y="812" as="targetPoint" />
            </mxGeometry>
          </mxCell>
        </object>
        <object placeholders="1" c4Type="" c4Description="Visits page" label="&lt;div style=&quot;text-align: left&quot;&gt;&lt;div style=&quot;text-align: center&quot;&gt;&lt;b&gt;%c4Description%&lt;/b&gt;&lt;/div&gt;" id="UYhcn5JIVmEAN_vkHW_w-11">
          <mxCell style="endArrow=blockThin;html=1;fontSize=10;fontColor=#404040;strokeWidth=1;endFill=1;strokeColor=#828282;elbow=vertical;metaEdit=1;endSize=14;startSize=14;jumpStyle=arc;jumpSize=16;rounded=0;edgeStyle=orthogonalEdgeStyle;exitX=0.5;exitY=1;exitDx=0;exitDy=0;exitPerimeter=0;entryX=0.5;entryY=0;entryDx=0;entryDy=0;entryPerimeter=0;" edge="1" parent="1" source="w3aXWvR-8BYG4ACYkMjc-8" target="w3aXWvR-8BYG4ACYkMjc-4">
            <mxGeometry width="240" relative="1" as="geometry">
              <mxPoint x="889" y="432" as="sourcePoint" />
              <mxPoint x="1129" y="432" as="targetPoint" />
            </mxGeometry>
          </mxCell>
        </object>
        <object placeholders="1" c4Type="" c4Description="Visits page" label="&lt;div style=&quot;text-align: left&quot;&gt;&lt;div style=&quot;text-align: center&quot;&gt;&lt;b&gt;%c4Description%&lt;/b&gt;&lt;/div&gt;" id="UYhcn5JIVmEAN_vkHW_w-12">
          <mxCell style="endArrow=blockThin;html=1;fontSize=10;fontColor=#404040;strokeWidth=1;endFill=1;strokeColor=#828282;elbow=vertical;metaEdit=1;endSize=14;startSize=14;jumpStyle=arc;jumpSize=16;rounded=0;edgeStyle=orthogonalEdgeStyle;exitX=0.5;exitY=1;exitDx=0;exitDy=0;exitPerimeter=0;entryX=0.5;entryY=0;entryDx=0;entryDy=0;entryPerimeter=0;" edge="1" parent="1">
            <mxGeometry width="240" relative="1" as="geometry">
              <mxPoint x="1708.23" y="332" as="sourcePoint" />
              <mxPoint x="1708.23" y="482" as="targetPoint" />
            </mxGeometry>
          </mxCell>
        </object>
        <object placeholders="1" c4Type="Container, Web Browser" label="&lt;font style=&quot;font-size: 16px&quot;&gt;&lt;b&gt;%c4Type%&lt;/b&gt;&lt;/font&gt;&lt;div&gt;[%c4Container%:&amp;nbsp;%c4Technology%]&lt;/div&gt;&lt;br&gt;&lt;div&gt;&lt;font style=&quot;font-size: 11px&quot;&gt;&lt;font color=&quot;#E6E6E6&quot;&gt;%c4Description%&lt;/font&gt;&lt;/div&gt;" id="UYhcn5JIVmEAN_vkHW_w-13">
          <mxCell style="shape=mxgraph.c4.webBrowserContainer2;whiteSpace=wrap;html=1;boundedLbl=1;rounded=0;labelBackgroundColor=none;strokeColor=#118ACD;fillColor=#23A2D9;strokeColor=#118ACD;strokeColor2=#0E7DAD;fontSize=12;fontColor=#ffffff;align=center;metaEdit=1;points=[[0.5,0,0],[1,0.25,0],[1,0.5,0],[1,0.75,0],[0.5,1,0],[0,0.75,0],[0,0.5,0],[0,0.25,0]];resizable=0;" vertex="1" parent="1">
            <mxGeometry x="309" y="1332" width="240" height="160" as="geometry" />
          </mxCell>
        </object>
      </root>
    </mxGraphModel>
  </diagram>
  <diagram id="l5xdCNT6zmagVDiSiUWW" name="C4 - Components">
    <mxGraphModel dx="1985" dy="2995" grid="1" gridSize="10" guides="1" tooltips="1" connect="1" arrows="1" fold="1" page="1" pageScale="1" pageWidth="2336" pageHeight="1654" math="0" shadow="0">
      <root>
        <mxCell id="0" />
        <mxCell id="1" parent="0" />
        <object placeholders="1" c4Type="Operating Web Client" c4Container="Container" c4Technology="React, JavaScript" c4Description="Web client to register new drones, track them and track flights." label="&lt;font style=&quot;font-size: 16px&quot;&gt;&lt;b&gt;%c4Type%&lt;/b&gt;&lt;/font&gt;&lt;div&gt;[%c4Container%:&amp;nbsp;%c4Technology%]&lt;/div&gt;&lt;br&gt;&lt;div&gt;&lt;font style=&quot;font-size: 11px&quot;&gt;&lt;font color=&quot;#E6E6E6&quot;&gt;%c4Description%&lt;/font&gt;&lt;/div&gt;" id="eh5XQN91qM5m3mAUoV0a-1">
          <mxCell style="shape=mxgraph.c4.webBrowserContainer2;whiteSpace=wrap;html=1;boundedLbl=1;rounded=0;labelBackgroundColor=none;strokeColor=#118ACD;fillColor=#23A2D9;strokeColor=#118ACD;strokeColor2=#0E7DAD;fontSize=12;fontColor=#ffffff;align=center;metaEdit=1;points=[[0.5,0,0],[1,0.25,0],[1,0.5,0],[1,0.75,0],[0.5,1,0],[0,0.75,0],[0,0.5,0],[0,0.25,0]];resizable=0;" vertex="1" parent="1">
            <mxGeometry x="483" y="351" width="240" height="160" as="geometry" />
          </mxCell>
        </object>
        <object placeholders="1" c4Type="Pizzeria Web Client" c4Container="Container" c4Technology="JavaScript" c4Description="Web client for pizzeria to make orders and manage personal accounts" label="&lt;font style=&quot;font-size: 16px&quot;&gt;&lt;b&gt;%c4Type%&lt;/b&gt;&lt;/font&gt;&lt;div&gt;[%c4Container%:&amp;nbsp;%c4Technology%]&lt;/div&gt;&lt;br&gt;&lt;div&gt;&lt;font style=&quot;font-size: 11px&quot;&gt;&lt;font color=&quot;#E6E6E6&quot;&gt;%c4Description%&lt;/font&gt;&lt;/div&gt;" id="kD9uEELEce1-KBDj9q3M-1">
          <mxCell style="shape=mxgraph.c4.webBrowserContainer2;whiteSpace=wrap;html=1;boundedLbl=1;rounded=0;labelBackgroundColor=none;strokeColor=#118ACD;fillColor=#23A2D9;strokeColor=#118ACD;strokeColor2=#0E7DAD;fontSize=12;fontColor=#ffffff;align=center;metaEdit=1;points=[[0.5,0,0],[1,0.25,0],[1,0.5,0],[1,0.75,0],[0.5,1,0],[0,0.75,0],[0,0.5,0],[0,0.25,0]];resizable=0;" vertex="1" parent="1">
            <mxGeometry x="1453" y="351" width="240" height="160" as="geometry" />
          </mxCell>
        </object>
        <object placeholders="1" c4Type="Database" c4Container="Database" c4Technology="Mongo Database" c4Description="Stores users, registered drones,&#xa;registered flights, menu itemscontainer role/responsibility." label="&lt;font style=&quot;font-size: 16px&quot;&gt;&lt;b&gt;%c4Type%&lt;/b&gt;&lt;/font&gt;&lt;div&gt;[%c4Container%:&amp;nbsp;%c4Technology%]&lt;/div&gt;&lt;br&gt;&lt;div&gt;&lt;font style=&quot;font-size: 11px&quot;&gt;&lt;font color=&quot;#E6E6E6&quot;&gt;%c4Description%&lt;/font&gt;&lt;/div&gt;" id="IUwiWqNrjTvYPL4zsB37-1">
          <mxCell style="shape=cylinder3;size=15;whiteSpace=wrap;html=1;boundedLbl=1;rounded=0;labelBackgroundColor=none;fillColor=#23A2D9;fontSize=12;fontColor=#ffffff;align=center;strokeColor=#0E7DAD;metaEdit=1;points=[[0.5,0,0],[1,0.25,0],[1,0.5,0],[1,0.75,0],[0.5,1,0],[0,0.75,0],[0,0.5,0],[0,0.25,0]];resizable=0;" vertex="1" parent="1">
            <mxGeometry x="1100" y="860" width="240" height="120" as="geometry" />
          </mxCell>
        </object>
        <object placeholders="1" c4Type="Message Queue" c4Container="Container" c4Technology="RabbitMQ" c4Description="Queuing flight orders" label="&lt;font style=&quot;font-size: 16px&quot;&gt;&lt;b&gt;%c4Type%&lt;/b&gt;&lt;/font&gt;&lt;div&gt;[%c4Container%:&amp;nbsp;%c4Technology%]&lt;/div&gt;&lt;br&gt;&lt;div&gt;&lt;font style=&quot;font-size: 11px&quot;&gt;&lt;font color=&quot;#E6E6E6&quot;&gt;%c4Description%&lt;/font&gt;&lt;/div&gt;" id="EPGgGVa7jm9GQRkpuvEY-1">
          <mxCell style="shape=cylinder3;size=15;direction=south;whiteSpace=wrap;html=1;boundedLbl=1;rounded=0;labelBackgroundColor=none;fillColor=#23A2D9;fontSize=12;fontColor=#ffffff;align=center;strokeColor=#0E7DAD;metaEdit=1;points=[[0.5,0,0],[1,0.25,0],[1,0.5,0],[1,0.75,0],[0.5,1,0],[0,0.75,0],[0,0.5,0],[0,0.25,0]];resizable=0;" vertex="1" parent="1">
            <mxGeometry x="483" y="851" width="240" height="120" as="geometry" />
          </mxCell>
        </object>
        <object placeholders="1" c4Name="User Controller" c4Type="Component" c4Technology="NestJS Controller" c4Description="Provides CRUD operations for customer accounts" label="&lt;font style=&quot;font-size: 16px&quot;&gt;&lt;b&gt;%c4Name%&lt;/b&gt;&lt;/font&gt;&lt;div&gt;[%c4Type%: %c4Technology%]&lt;/div&gt;&lt;br&gt;&lt;div&gt;&lt;font style=&quot;font-size: 11px&quot;&gt;%c4Description%&lt;/font&gt;&lt;/div&gt;" id="EPGgGVa7jm9GQRkpuvEY-4">
          <mxCell style="rounded=1;whiteSpace=wrap;html=1;labelBackgroundColor=none;fillColor=#63BEF2;fontColor=#ffffff;align=center;arcSize=6;strokeColor=#2086C9;metaEdit=1;resizable=0;points=[[0.25,0,0],[0.5,0,0],[0.75,0,0],[1,0.25,0],[1,0.5,0],[1,0.75,0],[0.75,1,0],[0.5,1,0],[0.25,1,0],[0,0.75,0],[0,0.5,0],[0,0.25,0]];" vertex="1" parent="1">
            <mxGeometry x="1133" y="611" width="240" height="120" as="geometry" />
          </mxCell>
        </object>
        <object placeholders="1" c4Name="Login Controller" c4Type="Component" c4Technology="NestJS Controller" c4Description="Authenticate Customers" label="&lt;font style=&quot;font-size: 16px&quot;&gt;&lt;b&gt;%c4Name%&lt;/b&gt;&lt;/font&gt;&lt;div&gt;[%c4Type%: %c4Technology%]&lt;/div&gt;&lt;br&gt;&lt;div&gt;&lt;font style=&quot;font-size: 11px&quot;&gt;%c4Description%&lt;/font&gt;&lt;/div&gt;" id="EPGgGVa7jm9GQRkpuvEY-5">
          <mxCell style="rounded=1;whiteSpace=wrap;html=1;labelBackgroundColor=none;fillColor=#63BEF2;fontColor=#ffffff;align=center;arcSize=6;strokeColor=#2086C9;metaEdit=1;resizable=0;points=[[0.25,0,0],[0.5,0,0],[0.75,0,0],[1,0.25,0],[1,0.5,0],[1,0.75,0],[0.75,1,0],[0.5,1,0],[0.25,1,0],[0,0.75,0],[0,0.5,0],[0,0.25,0]];" vertex="1" parent="1">
            <mxGeometry x="1773" y="611" width="240" height="120" as="geometry" />
          </mxCell>
        </object>
        <object placeholders="1" c4Name="Order Controller" c4Type="Component" c4Technology="NestJS Controller" c4Description="Responsible for order registration" label="&lt;font style=&quot;font-size: 16px&quot;&gt;&lt;b&gt;%c4Name%&lt;/b&gt;&lt;/font&gt;&lt;div&gt;[%c4Type%: %c4Technology%]&lt;/div&gt;&lt;br&gt;&lt;div&gt;&lt;font style=&quot;font-size: 11px&quot;&gt;%c4Description%&lt;/font&gt;&lt;/div&gt;" id="EPGgGVa7jm9GQRkpuvEY-8">
          <mxCell style="rounded=1;whiteSpace=wrap;html=1;labelBackgroundColor=none;fillColor=#63BEF2;fontColor=#ffffff;align=center;arcSize=6;strokeColor=#2086C9;metaEdit=1;resizable=0;points=[[0.25,0,0],[0.5,0,0],[0.75,0,0],[1,0.25,0],[1,0.5,0],[1,0.75,0],[0.75,1,0],[0.5,1,0],[0.25,1,0],[0,0.75,0],[0,0.5,0],[0,0.25,0]];" vertex="1" parent="1">
            <mxGeometry x="1453" y="611" width="240" height="120" as="geometry" />
          </mxCell>
        </object>
        <mxCell id="EPGgGVa7jm9GQRkpuvEY-10" value="" style="group" vertex="1" connectable="0" parent="1">
          <mxGeometry x="460" y="1080" width="560" height="233" as="geometry" />
        </mxCell>
        <object placeholders="1" c4Name="Drone Controller" c4Type="Component" c4Technology="Spring MVC Rest Controller" c4Description="Authorize new Drone against fleet service" label="&lt;font style=&quot;font-size: 16px&quot;&gt;&lt;b&gt;%c4Name%&lt;/b&gt;&lt;/font&gt;&lt;div&gt;[%c4Type%: %c4Technology%]&lt;/div&gt;&lt;br&gt;&lt;div&gt;&lt;font style=&quot;font-size: 11px&quot;&gt;%c4Description%&lt;/font&gt;&lt;/div&gt;" id="EPGgGVa7jm9GQRkpuvEY-6">
          <mxCell style="rounded=1;whiteSpace=wrap;html=1;labelBackgroundColor=none;fillColor=#63BEF2;fontColor=#ffffff;align=center;arcSize=6;strokeColor=#2086C9;metaEdit=1;resizable=0;points=[[0.25,0,0],[0.5,0,0],[0.75,0,0],[1,0.25,0],[1,0.5,0],[1,0.75,0],[0.75,1,0],[0.5,1,0],[0.25,1,0],[0,0.75,0],[0,0.5,0],[0,0.25,0]];" vertex="1" parent="EPGgGVa7jm9GQRkpuvEY-10">
            <mxGeometry x="23" y="33" width="240" height="120" as="geometry" />
          </mxCell>
        </object>
        <object placeholders="1" c4Name="Apache Camel Integration" c4Type="Component" c4Technology="Apache Camel" c4Description="Sends drone status updates" label="&lt;font style=&quot;font-size: 16px&quot;&gt;&lt;b&gt;%c4Name%&lt;/b&gt;&lt;/font&gt;&lt;div&gt;[%c4Type%: %c4Technology%]&lt;/div&gt;&lt;br&gt;&lt;div&gt;&lt;font style=&quot;font-size: 11px&quot;&gt;%c4Description%&lt;/font&gt;&lt;/div&gt;" id="EPGgGVa7jm9GQRkpuvEY-7">
          <mxCell style="rounded=1;whiteSpace=wrap;html=1;labelBackgroundColor=none;fillColor=#63BEF2;fontColor=#ffffff;align=center;arcSize=6;strokeColor=#2086C9;metaEdit=1;resizable=0;points=[[0.25,0,0],[0.5,0,0],[0.75,0,0],[1,0.25,0],[1,0.5,0],[1,0.75,0],[0.75,1,0],[0.5,1,0],[0.25,1,0],[0,0.75,0],[0,0.5,0],[0,0.25,0]];" vertex="1" parent="EPGgGVa7jm9GQRkpuvEY-10">
            <mxGeometry x="300" y="33" width="240" height="120" as="geometry" />
          </mxCell>
        </object>
        <object placeholders="1" c4Name="Drone" c4Type="" c4Application="Software and Hardware System" label="&lt;font style=&quot;font-size: 16px&quot;&gt;&lt;b&gt;&lt;div style=&quot;text-align: left&quot;&gt;%c4Name%&lt;/div&gt;&lt;/b&gt;&lt;/font&gt;&lt;div style=&quot;text-align: left&quot;&gt;[%c4Application%]&lt;/div&gt;" id="EPGgGVa7jm9GQRkpuvEY-9">
          <mxCell style="rounded=1;fontSize=11;whiteSpace=wrap;html=1;dashed=1;arcSize=20;fillColor=none;strokeColor=#666666;fontColor=#333333;labelBackgroundColor=none;align=left;verticalAlign=bottom;labelBorderColor=none;spacingTop=0;spacing=10;dashPattern=8 4;metaEdit=1;rotatable=0;perimeter=rectanglePerimeter;noLabel=0;labelPadding=0;allowArrows=0;connectable=0;expand=0;recursiveResize=0;editable=1;pointerEvents=0;absoluteArcSize=1;points=[[0.25,0,0],[0.5,0,0],[0.75,0,0],[1,0.25,0],[1,0.5,0],[1,0.75,0],[0.75,1,0],[0.5,1,0],[0.25,1,0],[0,0.75,0],[0,0.5,0],[0,0.25,0]];" vertex="1" parent="EPGgGVa7jm9GQRkpuvEY-10">
            <mxGeometry width="560" height="233" as="geometry" />
          </mxCell>
        </object>
        <mxCell id="EPGgGVa7jm9GQRkpuvEY-12" value="" style="group" vertex="1" connectable="0" parent="1">
          <mxGeometry x="303" y="588" width="590" height="210" as="geometry" />
        </mxCell>
        <object placeholders="1" c4Name="Drone Controller" c4Type="Component" c4Technology="Spring MVC Rest Controller" c4Description="Provides CRUD operations for drone" label="&lt;font style=&quot;font-size: 16px&quot;&gt;&lt;b&gt;%c4Name%&lt;/b&gt;&lt;/font&gt;&lt;div&gt;[%c4Type%: %c4Technology%]&lt;/div&gt;&lt;br&gt;&lt;div&gt;&lt;font style=&quot;font-size: 11px&quot;&gt;%c4Description%&lt;/font&gt;&lt;/div&gt;" id="EPGgGVa7jm9GQRkpuvEY-2">
          <mxCell style="rounded=1;whiteSpace=wrap;html=1;labelBackgroundColor=none;fillColor=#63BEF2;fontColor=#ffffff;align=center;arcSize=6;strokeColor=#2086C9;metaEdit=1;resizable=0;points=[[0.25,0,0],[0.5,0,0],[0.75,0,0],[1,0.25,0],[1,0.5,0],[1,0.75,0],[0.75,1,0],[0.5,1,0],[0.25,1,0],[0,0.75,0],[0,0.5,0],[0,0.25,0]];" vertex="1" parent="EPGgGVa7jm9GQRkpuvEY-12">
            <mxGeometry x="330" y="23" width="240" height="120" as="geometry" />
          </mxCell>
        </object>
        <object placeholders="1" c4Name="Flight Controller" c4Type="Component" c4Technology="Spring MVC Rest Controller" c4Description="Provides CRUD operations for flights" label="&lt;font style=&quot;font-size: 16px&quot;&gt;&lt;b&gt;%c4Name%&lt;/b&gt;&lt;/font&gt;&lt;div&gt;[%c4Type%: %c4Technology%]&lt;/div&gt;&lt;br&gt;&lt;div&gt;&lt;font style=&quot;font-size: 11px&quot;&gt;%c4Description%&lt;/font&gt;&lt;/div&gt;" id="EPGgGVa7jm9GQRkpuvEY-3">
          <mxCell style="rounded=1;whiteSpace=wrap;html=1;labelBackgroundColor=none;fillColor=#63BEF2;fontColor=#ffffff;align=center;arcSize=6;strokeColor=#2086C9;metaEdit=1;resizable=0;points=[[0.25,0,0],[0.5,0,0],[0.75,0,0],[1,0.25,0],[1,0.5,0],[1,0.75,0],[0.75,1,0],[0.5,1,0],[0.25,1,0],[0,0.75,0],[0,0.5,0],[0,0.25,0]];" vertex="1" parent="EPGgGVa7jm9GQRkpuvEY-12">
            <mxGeometry x="20" y="23" width="240" height="120" as="geometry" />
          </mxCell>
        </object>
        <object placeholders="1" c4Name="Fleet Service" c4Type="ContainerScopeBoundary" c4Application="Container" label="&lt;font style=&quot;font-size: 16px&quot;&gt;&lt;b&gt;&lt;div style=&quot;text-align: left&quot;&gt;%c4Name%&lt;/div&gt;&lt;/b&gt;&lt;/font&gt;&lt;div style=&quot;text-align: left&quot;&gt;[%c4Application%]&lt;/div&gt;" id="EPGgGVa7jm9GQRkpuvEY-11">
          <mxCell style="rounded=1;fontSize=11;whiteSpace=wrap;html=1;dashed=1;arcSize=20;fillColor=none;strokeColor=#666666;fontColor=#333333;labelBackgroundColor=none;align=left;verticalAlign=bottom;labelBorderColor=none;spacingTop=0;spacing=10;dashPattern=8 4;metaEdit=1;rotatable=0;perimeter=rectanglePerimeter;noLabel=0;labelPadding=0;allowArrows=0;connectable=0;expand=0;recursiveResize=0;editable=1;pointerEvents=0;absoluteArcSize=1;points=[[0.25,0,0],[0.5,0,0],[0.75,0,0],[1,0.25,0],[1,0.5,0],[1,0.75,0],[0.75,1,0],[0.5,1,0],[0.25,1,0],[0,0.75,0],[0,0.5,0],[0,0.25,0]];" vertex="1" parent="EPGgGVa7jm9GQRkpuvEY-12">
            <mxGeometry width="590" height="210" as="geometry" />
          </mxCell>
        </object>
        <object placeholders="1" c4Name="Pizzeria backend" c4Type="" c4Application="Container" label="&lt;font style=&quot;font-size: 16px&quot;&gt;&lt;b&gt;&lt;div style=&quot;text-align: left&quot;&gt;%c4Name%&lt;/div&gt;&lt;/b&gt;&lt;/font&gt;&lt;div style=&quot;text-align: left&quot;&gt;[%c4Application%]&lt;/div&gt;" id="EPGgGVa7jm9GQRkpuvEY-13">
          <mxCell style="rounded=1;fontSize=11;whiteSpace=wrap;html=1;dashed=1;arcSize=20;fillColor=none;strokeColor=#666666;fontColor=#333333;labelBackgroundColor=none;align=left;verticalAlign=bottom;labelBorderColor=none;spacingTop=0;spacing=10;dashPattern=8 4;metaEdit=1;rotatable=0;perimeter=rectanglePerimeter;noLabel=0;labelPadding=0;allowArrows=0;connectable=0;expand=0;recursiveResize=0;editable=1;pointerEvents=0;absoluteArcSize=1;points=[[0.25,0,0],[0.5,0,0],[0.75,0,0],[1,0.25,0],[1,0.5,0],[1,0.75,0],[0.75,1,0],[0.5,1,0],[0.25,1,0],[0,0.75,0],[0,0.5,0],[0,0.25,0]];" vertex="1" parent="1">
            <mxGeometry x="1113" y="588" width="920" height="210" as="geometry" />
          </mxCell>
        </object>
        <object placeholders="1" c4Type="Relationship" c4Technology="JSON/HTTP" c4Description="Makes API calls" label="&lt;div style=&quot;text-align: left&quot;&gt;&lt;div style=&quot;text-align: center&quot;&gt;&lt;b&gt;%c4Description%&lt;/b&gt;&lt;/div&gt;&lt;div style=&quot;text-align: center&quot;&gt;[%c4Technology%]&lt;/div&gt;&lt;/div&gt;" id="EPGgGVa7jm9GQRkpuvEY-14">
          <mxCell style="endArrow=blockThin;html=1;fontSize=10;fontColor=#404040;strokeWidth=1;endFill=1;strokeColor=#828282;elbow=vertical;metaEdit=1;endSize=14;startSize=14;jumpStyle=arc;jumpSize=16;rounded=0;edgeStyle=orthogonalEdgeStyle;exitX=1;exitY=0.5;exitDx=0;exitDy=0;exitPerimeter=0;entryX=0.5;entryY=0;entryDx=0;entryDy=0;entryPerimeter=0;" edge="1" parent="1" source="eh5XQN91qM5m3mAUoV0a-1" target="EPGgGVa7jm9GQRkpuvEY-2">
            <mxGeometry width="240" relative="1" as="geometry">
              <mxPoint x="463" y="541" as="sourcePoint" />
              <mxPoint x="703" y="541" as="targetPoint" />
            </mxGeometry>
          </mxCell>
        </object>
        <object placeholders="1" c4Type="Relationship" c4Technology="JSON/HTTP" c4Description="Makes API calls" label="&lt;div style=&quot;text-align: left&quot;&gt;&lt;div style=&quot;text-align: center&quot;&gt;&lt;b&gt;%c4Description%&lt;/b&gt;&lt;/div&gt;&lt;div style=&quot;text-align: center&quot;&gt;[%c4Technology%]&lt;/div&gt;&lt;/div&gt;" id="EPGgGVa7jm9GQRkpuvEY-15">
          <mxCell style="endArrow=blockThin;html=1;fontSize=10;fontColor=#404040;strokeWidth=1;endFill=1;strokeColor=#828282;elbow=vertical;metaEdit=1;endSize=14;startSize=14;jumpStyle=arc;jumpSize=16;rounded=0;edgeStyle=orthogonalEdgeStyle;exitX=0;exitY=0.5;exitDx=0;exitDy=0;exitPerimeter=0;entryX=0.5;entryY=0;entryDx=0;entryDy=0;entryPerimeter=0;" edge="1" parent="1" source="eh5XQN91qM5m3mAUoV0a-1" target="EPGgGVa7jm9GQRkpuvEY-3">
            <mxGeometry width="240" relative="1" as="geometry">
              <mxPoint x="363" y="381" as="sourcePoint" />
              <mxPoint x="393" y="561" as="targetPoint" />
            </mxGeometry>
          </mxCell>
        </object>
        <object placeholders="1" c4Type="Relationship" c4Technology="JSON/HTTP" c4Description="Makes API calls" label="&lt;div style=&quot;text-align: left&quot;&gt;&lt;div style=&quot;text-align: center&quot;&gt;&lt;b&gt;%c4Description%&lt;/b&gt;&lt;/div&gt;&lt;div style=&quot;text-align: center&quot;&gt;[%c4Technology%]&lt;/div&gt;&lt;/div&gt;" id="EPGgGVa7jm9GQRkpuvEY-16">
          <mxCell style="endArrow=blockThin;html=1;fontSize=10;fontColor=#404040;strokeWidth=1;endFill=1;strokeColor=#828282;elbow=vertical;metaEdit=1;endSize=14;startSize=14;jumpStyle=arc;jumpSize=16;rounded=0;edgeStyle=orthogonalEdgeStyle;exitX=0;exitY=0.5;exitDx=0;exitDy=0;exitPerimeter=0;entryX=0.5;entryY=0;entryDx=0;entryDy=0;entryPerimeter=0;" edge="1" parent="1" source="kD9uEELEce1-KBDj9q3M-1" target="EPGgGVa7jm9GQRkpuvEY-4">
            <mxGeometry width="240" relative="1" as="geometry">
              <mxPoint x="1313" y="391" as="sourcePoint" />
              <mxPoint x="1343" y="571" as="targetPoint" />
            </mxGeometry>
          </mxCell>
        </object>
        <object placeholders="1" c4Type="Relationship" c4Technology="JSON/HTTP" c4Description="Makes API calls" label="&lt;div style=&quot;text-align: left&quot;&gt;&lt;div style=&quot;text-align: center&quot;&gt;&lt;b&gt;%c4Description%&lt;/b&gt;&lt;/div&gt;&lt;div style=&quot;text-align: center&quot;&gt;[%c4Technology%]&lt;/div&gt;&lt;/div&gt;" id="EPGgGVa7jm9GQRkpuvEY-17">
          <mxCell style="endArrow=blockThin;html=1;fontSize=10;fontColor=#404040;strokeWidth=1;endFill=1;strokeColor=#828282;elbow=vertical;metaEdit=1;endSize=14;startSize=14;jumpStyle=arc;jumpSize=16;rounded=0;edgeStyle=orthogonalEdgeStyle;exitX=0.5;exitY=1;exitDx=0;exitDy=0;exitPerimeter=0;entryX=0.5;entryY=0;entryDx=0;entryDy=0;entryPerimeter=0;" edge="1" parent="1" source="kD9uEELEce1-KBDj9q3M-1" target="EPGgGVa7jm9GQRkpuvEY-8">
            <mxGeometry width="240" relative="1" as="geometry">
              <mxPoint x="1363" y="511" as="sourcePoint" />
              <mxPoint x="1393" y="691" as="targetPoint" />
            </mxGeometry>
          </mxCell>
        </object>
        <object placeholders="1" c4Type="Relationship" c4Technology="JSON/HTTP" c4Description="Makes API calls" label="&lt;div style=&quot;text-align: left&quot;&gt;&lt;div style=&quot;text-align: center&quot;&gt;&lt;b&gt;%c4Description%&lt;/b&gt;&lt;/div&gt;&lt;div style=&quot;text-align: center&quot;&gt;[%c4Technology%]&lt;/div&gt;&lt;/div&gt;" id="EPGgGVa7jm9GQRkpuvEY-18">
          <mxCell style="endArrow=blockThin;html=1;fontSize=10;fontColor=#404040;strokeWidth=1;endFill=1;strokeColor=#828282;elbow=vertical;metaEdit=1;endSize=14;startSize=14;jumpStyle=arc;jumpSize=16;rounded=0;edgeStyle=orthogonalEdgeStyle;exitX=1;exitY=0.5;exitDx=0;exitDy=0;exitPerimeter=0;entryX=0.5;entryY=0;entryDx=0;entryDy=0;entryPerimeter=0;" edge="1" parent="1" source="kD9uEELEce1-KBDj9q3M-1" target="EPGgGVa7jm9GQRkpuvEY-5">
            <mxGeometry width="240" relative="1" as="geometry">
              <mxPoint x="1742.4299999999998" y="408" as="sourcePoint" />
              <mxPoint x="1772.4299999999998" y="588" as="targetPoint" />
            </mxGeometry>
          </mxCell>
        </object>
        <object placeholders="1" c4Type="Relationship" c4Description="Enqueue flights" label="&lt;div style=&quot;text-align: left&quot;&gt;&lt;div style=&quot;text-align: center&quot;&gt;&lt;b&gt;%c4Description%&lt;/b&gt;&lt;/div&gt;" id="EPGgGVa7jm9GQRkpuvEY-19">
          <mxCell style="endArrow=blockThin;html=1;fontSize=10;fontColor=#404040;strokeWidth=1;endFill=1;strokeColor=#828282;elbow=vertical;metaEdit=1;endSize=14;startSize=14;jumpStyle=arc;jumpSize=16;rounded=0;edgeStyle=orthogonalEdgeStyle;exitX=0.5;exitY=1;exitDx=0;exitDy=0;exitPerimeter=0;entryX=0;entryY=0.5;entryDx=0;entryDy=0;entryPerimeter=0;" edge="1" parent="1" source="EPGgGVa7jm9GQRkpuvEY-3" target="EPGgGVa7jm9GQRkpuvEY-1">
            <mxGeometry width="240" relative="1" as="geometry">
              <mxPoint x="660" y="740" as="sourcePoint" />
              <mxPoint x="900" y="740" as="targetPoint" />
            </mxGeometry>
          </mxCell>
        </object>
        <object placeholders="1" c4Type="Relationship" c4Description="Store registered drones" label="&lt;div style=&quot;text-align: left&quot;&gt;&lt;div style=&quot;text-align: center&quot;&gt;&lt;b&gt;%c4Description%&lt;/b&gt;&lt;/div&gt;" id="EPGgGVa7jm9GQRkpuvEY-20">
          <mxCell style="endArrow=blockThin;html=1;fontSize=10;fontColor=#404040;strokeWidth=1;endFill=1;strokeColor=#828282;elbow=vertical;metaEdit=1;endSize=14;startSize=14;jumpStyle=arc;jumpSize=16;rounded=0;edgeStyle=orthogonalEdgeStyle;entryX=0;entryY=0.5;entryDx=0;entryDy=0;entryPerimeter=0;exitX=1;exitY=0.5;exitDx=0;exitDy=0;exitPerimeter=0;" edge="1" parent="1" source="EPGgGVa7jm9GQRkpuvEY-2" target="IUwiWqNrjTvYPL4zsB37-1">
            <mxGeometry width="240" relative="1" as="geometry">
              <mxPoint x="766" y="890" as="sourcePoint" />
              <mxPoint x="1113" y="1079" as="targetPoint" />
            </mxGeometry>
          </mxCell>
        </object>
        <object placeholders="1" c4Type="Relationship" c4Description="Listen Queue" label="&lt;div style=&quot;text-align: left&quot;&gt;&lt;div style=&quot;text-align: center&quot;&gt;&lt;b&gt;%c4Description%&lt;/b&gt;&lt;/div&gt;" id="EPGgGVa7jm9GQRkpuvEY-22">
          <mxCell style="endArrow=blockThin;html=1;fontSize=10;fontColor=#404040;strokeWidth=1;endFill=1;strokeColor=#828282;elbow=vertical;metaEdit=1;endSize=14;startSize=14;jumpStyle=arc;jumpSize=16;rounded=0;edgeStyle=orthogonalEdgeStyle;exitX=0.5;exitY=0;exitDx=0;exitDy=0;exitPerimeter=0;entryX=1;entryY=0.5;entryDx=0;entryDy=0;entryPerimeter=0;" edge="1" parent="1" source="EPGgGVa7jm9GQRkpuvEY-6" target="EPGgGVa7jm9GQRkpuvEY-1">
            <mxGeometry width="240" relative="1" as="geometry">
              <mxPoint x="660" y="740" as="sourcePoint" />
              <mxPoint x="900" y="740" as="targetPoint" />
            </mxGeometry>
          </mxCell>
        </object>
        <object placeholders="1" c4Type="Relationship" c4Technology="JSON/HTTP" c4Description="Makes API calls" label="&lt;div style=&quot;text-align: left&quot;&gt;&lt;div style=&quot;text-align: center&quot;&gt;&lt;b&gt;%c4Description%&lt;/b&gt;&lt;/div&gt;&lt;div style=&quot;text-align: center&quot;&gt;[%c4Technology%]&lt;/div&gt;&lt;/div&gt;" id="EPGgGVa7jm9GQRkpuvEY-25">
          <mxCell style="endArrow=blockThin;html=1;fontSize=10;fontColor=#404040;strokeWidth=1;endFill=1;strokeColor=#828282;elbow=vertical;metaEdit=1;endSize=14;startSize=14;jumpStyle=arc;jumpSize=16;rounded=0;edgeStyle=orthogonalEdgeStyle;exitX=0.5;exitY=0;exitDx=0;exitDy=0;exitPerimeter=0;entryX=0.5;entryY=1;entryDx=0;entryDy=0;entryPerimeter=0;" edge="1" parent="1" source="EPGgGVa7jm9GQRkpuvEY-7" target="EPGgGVa7jm9GQRkpuvEY-2">
            <mxGeometry width="240" relative="1" as="geometry">
              <mxPoint x="710" y="950" as="sourcePoint" />
              <mxPoint x="910" y="930" as="targetPoint" />
            </mxGeometry>
          </mxCell>
        </object>
        <object placeholders="1" c4Type="Relationship" c4Description="Writes new orders" label="&lt;div style=&quot;text-align: left&quot;&gt;&lt;div style=&quot;text-align: center&quot;&gt;&lt;b&gt;%c4Description%&lt;/b&gt;&lt;/div&gt;" id="EPGgGVa7jm9GQRkpuvEY-26">
          <mxCell style="endArrow=blockThin;html=1;fontSize=10;fontColor=#404040;strokeWidth=1;endFill=1;strokeColor=#828282;elbow=vertical;metaEdit=1;endSize=14;startSize=14;jumpStyle=arc;jumpSize=16;rounded=0;edgeStyle=orthogonalEdgeStyle;exitX=0;exitY=0.5;exitDx=0;exitDy=0;exitPerimeter=0;entryX=0.5;entryY=1;entryDx=0;entryDy=0;entryPerimeter=0;" edge="1" parent="1" source="EPGgGVa7jm9GQRkpuvEY-3" target="IUwiWqNrjTvYPL4zsB37-1">
            <mxGeometry width="240" relative="1" as="geometry">
              <mxPoint x="363" y="690" as="sourcePoint" />
              <mxPoint x="1230" y="1170" as="targetPoint" />
              <Array as="points">
                <mxPoint x="280" y="671" />
                <mxPoint x="280" y="1360" />
                <mxPoint x="1220" y="1360" />
              </Array>
            </mxGeometry>
          </mxCell>
        </object>
        <object placeholders="1" c4Type="Relationship" c4Description="Writes to " label="&lt;div style=&quot;text-align: left&quot;&gt;&lt;div style=&quot;text-align: center&quot;&gt;&lt;b&gt;%c4Description%&lt;/b&gt;&lt;/div&gt;" id="EPGgGVa7jm9GQRkpuvEY-27">
          <mxCell style="endArrow=blockThin;html=1;fontSize=10;fontColor=#404040;strokeWidth=1;endFill=1;strokeColor=#828282;elbow=vertical;metaEdit=1;endSize=14;startSize=14;jumpStyle=arc;jumpSize=16;rounded=0;edgeStyle=orthogonalEdgeStyle;exitX=0.5;exitY=1;exitDx=0;exitDy=0;exitPerimeter=0;entryX=0.5;entryY=0;entryDx=0;entryDy=0;entryPerimeter=0;" edge="1" parent="1" source="EPGgGVa7jm9GQRkpuvEY-4" target="IUwiWqNrjTvYPL4zsB37-1">
            <mxGeometry width="240" relative="1" as="geometry">
              <mxPoint x="1310" y="820" as="sourcePoint" />
              <mxPoint x="1550" y="820" as="targetPoint" />
              <Array as="points">
                <mxPoint x="1253" y="810" />
                <mxPoint x="1220" y="810" />
              </Array>
            </mxGeometry>
          </mxCell>
        </object>
        <object placeholders="1" c4Type="Relationship" c4Description="Reads from" label="&lt;div style=&quot;text-align: left&quot;&gt;&lt;div style=&quot;text-align: center&quot;&gt;&lt;b&gt;%c4Description%&lt;/b&gt;&lt;/div&gt;" id="EPGgGVa7jm9GQRkpuvEY-28">
          <mxCell style="endArrow=blockThin;html=1;fontSize=10;fontColor=#404040;strokeWidth=1;endFill=1;strokeColor=#828282;elbow=vertical;metaEdit=1;endSize=14;startSize=14;jumpStyle=arc;jumpSize=16;rounded=0;edgeStyle=orthogonalEdgeStyle;entryX=1;entryY=0.5;entryDx=0;entryDy=0;entryPerimeter=0;exitX=0.5;exitY=1;exitDx=0;exitDy=0;exitPerimeter=0;" edge="1" parent="1" source="EPGgGVa7jm9GQRkpuvEY-5" target="IUwiWqNrjTvYPL4zsB37-1">
            <mxGeometry x="-0.0008" width="240" relative="1" as="geometry">
              <mxPoint x="1800" y="830" as="sourcePoint" />
              <mxPoint x="1540" y="830" as="targetPoint" />
              <mxPoint as="offset" />
            </mxGeometry>
          </mxCell>
        </object>
        <object placeholders="1" c4Name="Software System" label="&lt;font style=&quot;font-size: 16px&quot;&gt;&lt;b&gt;%c4Name%&lt;/b&gt;&lt;/font&gt;&lt;div&gt;[%c4Type%]&lt;/div&gt;&lt;br&gt;&lt;div&gt;&lt;font style=&quot;font-size: 11px&quot;&gt;&lt;font color=&quot;#cccccc&quot;&gt;%c4Description%&lt;/font&gt;&lt;/div&gt;" id="dh9Yy2wuCI8fyh1PxpmT-2">
          <mxCell style="rounded=1;whiteSpace=wrap;html=1;labelBackgroundColor=none;fillColor=#1061B0;fontColor=#ffffff;align=center;arcSize=10;strokeColor=#0D5091;metaEdit=1;resizable=0;points=[[0.25,0,0],[0.5,0,0],[0.75,0,0],[1,0.25,0],[1,0.5,0],[1,0.75,0],[0.75,1,0],[0.5,1,0],[0.25,1,0],[0,0.75,0],[0,0.5,0],[0,0.25,0]];" vertex="1" parent="1">
            <mxGeometry x="698" y="1440" width="240" height="120" as="geometry" />
          </mxCell>
        </object>
        <object placeholders="1" c4Type="Message Queue" label="&lt;font style=&quot;font-size: 16px&quot;&gt;&lt;b&gt;%c4Type%&lt;/b&gt;&lt;/font&gt;&lt;div&gt;[%c4Container%:&amp;nbsp;%c4Technology%]&lt;/div&gt;&lt;br&gt;&lt;div&gt;&lt;font style=&quot;font-size: 11px&quot;&gt;&lt;font color=&quot;#E6E6E6&quot;&gt;%c4Description%&lt;/font&gt;&lt;/div&gt;" id="dh9Yy2wuCI8fyh1PxpmT-3">
          <mxCell style="shape=cylinder3;size=15;direction=south;whiteSpace=wrap;html=1;boundedLbl=1;rounded=0;labelBackgroundColor=none;fillColor=#23A2D9;fontSize=12;fontColor=#ffffff;align=center;strokeColor=#0E7DAD;metaEdit=1;points=[[0.5,0,0],[1,0.25,0],[1,0.5,0],[1,0.75,0],[0.5,1,0],[0,0.75,0],[0,0.5,0],[0,0.25,0]];resizable=0;" vertex="1" parent="1">
            <mxGeometry x="1028" y="1440" width="240" height="120" as="geometry" />
          </mxCell>
        </object>
        <object placeholders="1" c4Type="Container, Database" label="&lt;font style=&quot;font-size: 16px&quot;&gt;&lt;b&gt;%c4Type%&lt;/b&gt;&lt;/font&gt;&lt;div&gt;[%c4Container%:&amp;nbsp;%c4Technology%]&lt;/div&gt;&lt;br&gt;&lt;div&gt;&lt;font style=&quot;font-size: 11px&quot;&gt;&lt;font color=&quot;#E6E6E6&quot;&gt;%c4Description%&lt;/font&gt;&lt;/div&gt;" id="dh9Yy2wuCI8fyh1PxpmT-4">
          <mxCell style="shape=cylinder3;size=15;whiteSpace=wrap;html=1;boundedLbl=1;rounded=0;labelBackgroundColor=none;fillColor=#23A2D9;fontSize=12;fontColor=#ffffff;align=center;strokeColor=#0E7DAD;metaEdit=1;points=[[0.5,0,0],[1,0.25,0],[1,0.5,0],[1,0.75,0],[0.5,1,0],[0,0.75,0],[0,0.5,0],[0,0.25,0]];resizable=0;" vertex="1" parent="1">
            <mxGeometry x="1358" y="1440" width="240" height="120" as="geometry" />
          </mxCell>
        </object>
        <object placeholders="1" c4Type="Relationship" id="dh9Yy2wuCI8fyh1PxpmT-5">
          <mxCell style="endArrow=blockThin;html=1;fontSize=12;fontColor=#404040;strokeWidth=1;endFill=1;strokeColor=#828282;elbow=vertical;metaEdit=1;endSize=16;startSize=16;jumpStyle=arc;jumpSize=16;rounded=0;edgeStyle=orthogonalEdgeStyle;" edge="1" parent="1">
            <mxGeometry width="240" relative="1" as="geometry">
              <mxPoint x="1689" y="1499.52" as="sourcePoint" />
              <mxPoint x="1929" y="1499.52" as="targetPoint" />
            </mxGeometry>
          </mxCell>
        </object>
        <mxCell id="dh9Yy2wuCI8fyh1PxpmT-6" value="RelationShip" style="edgeLabel;html=1;align=center;verticalAlign=middle;resizable=0;points=[];arcSize=13;" vertex="1" connectable="0" parent="dh9Yy2wuCI8fyh1PxpmT-5">
          <mxGeometry x="-0.2776" relative="1" as="geometry">
            <mxPoint x="33" as="offset" />
          </mxGeometry>
        </mxCell>
        <object placeholders="1" c4Type="Container, Web Browser" label="&lt;font style=&quot;font-size: 16px&quot;&gt;&lt;b&gt;%c4Type%&lt;/b&gt;&lt;/font&gt;&lt;div&gt;[%c4Container%:&amp;nbsp;%c4Technology%]&lt;/div&gt;&lt;br&gt;&lt;div&gt;&lt;font style=&quot;font-size: 11px&quot;&gt;&lt;font color=&quot;#E6E6E6&quot;&gt;%c4Description%&lt;/font&gt;&lt;/div&gt;" id="xQ9lmENG1jLf_lstCtyl-1">
          <mxCell style="shape=mxgraph.c4.webBrowserContainer2;whiteSpace=wrap;html=1;boundedLbl=1;rounded=0;labelBackgroundColor=none;strokeColor=#118ACD;fillColor=#23A2D9;strokeColor=#118ACD;strokeColor2=#0E7DAD;fontSize=12;fontColor=#ffffff;align=center;metaEdit=1;points=[[0.5,0,0],[1,0.25,0],[1,0.5,0],[1,0.75,0],[0.5,1,0],[0,0.75,0],[0,0.5,0],[0,0.25,0]];resizable=0;" vertex="1" parent="1">
            <mxGeometry x="370" y="1420" width="240" height="160" as="geometry" />
          </mxCell>
        </object>
      </root>
    </mxGraphModel>
  </diagram>
  <diagram id="yMe22WBzs4ZL2qqQG0WB" name="C4 - Code">
    <mxGraphModel dx="1985" dy="2995" grid="1" gridSize="10" guides="1" tooltips="1" connect="1" arrows="1" fold="1" page="1" pageScale="1" pageWidth="1654" pageHeight="1169" math="0" shadow="0">
      <root>
        <mxCell id="0" />
        <mxCell id="1" parent="0" />
        <mxCell id="nwHrMvAd21um5Kx8FrDh-1" value="" style="shape=umlLifeline;perimeter=lifelinePerimeter;whiteSpace=wrap;html=1;container=1;dropTarget=0;collapsible=0;recursiveResize=0;outlineConnect=0;portConstraint=eastwest;newEdgeStyle={&quot;curved&quot;:0,&quot;rounded&quot;:0};participant=umlActor;" vertex="1" parent="1">
          <mxGeometry x="287" y="119" width="20" height="930" as="geometry" />
        </mxCell>
        <mxCell id="nwHrMvAd21um5Kx8FrDh-8" value="" style="html=1;points=[[0,0,0,0,5],[0,1,0,0,-5],[1,0,0,0,5],[1,1,0,0,-5]];perimeter=orthogonalPerimeter;outlineConnect=0;targetShapes=umlLifeline;portConstraint=eastwest;newEdgeStyle={&quot;curved&quot;:0,&quot;rounded&quot;:0};" vertex="1" parent="nwHrMvAd21um5Kx8FrDh-1">
          <mxGeometry x="5" y="50" width="10" height="870" as="geometry" />
        </mxCell>
        <mxCell id="nwHrMvAd21um5Kx8FrDh-2" value="FoodOrder&lt;br&gt;Service" style="shape=umlLifeline;perimeter=lifelinePerimeter;whiteSpace=wrap;html=1;container=1;dropTarget=0;collapsible=0;recursiveResize=0;outlineConnect=0;portConstraint=eastwest;newEdgeStyle={&quot;curved&quot;:0,&quot;rounded&quot;:0};" vertex="1" parent="1">
          <mxGeometry x="1047" y="119" width="100" height="690" as="geometry" />
        </mxCell>
        <mxCell id="nwHrMvAd21um5Kx8FrDh-24" value="" style="html=1;points=[[0,0,0,0,5],[0,1,0,0,-5],[1,0,0,0,5],[1,1,0,0,-5]];perimeter=orthogonalPerimeter;outlineConnect=0;targetShapes=umlLifeline;portConstraint=eastwest;newEdgeStyle={&quot;curved&quot;:0,&quot;rounded&quot;:0};" vertex="1" parent="nwHrMvAd21um5Kx8FrDh-2">
          <mxGeometry x="45" y="400" width="10" height="180" as="geometry" />
        </mxCell>
        <mxCell id="nwHrMvAd21um5Kx8FrDh-3" value="Food Order Repository" style="shape=umlLifeline;perimeter=lifelinePerimeter;whiteSpace=wrap;html=1;container=1;dropTarget=0;collapsible=0;recursiveResize=0;outlineConnect=0;portConstraint=eastwest;newEdgeStyle={&quot;curved&quot;:0,&quot;rounded&quot;:0};" vertex="1" parent="1">
          <mxGeometry x="1267" y="119" width="100" height="930" as="geometry" />
        </mxCell>
        <mxCell id="nwHrMvAd21um5Kx8FrDh-32" value="" style="html=1;points=[[0,0,0,0,5],[0,1,0,0,-5],[1,0,0,0,5],[1,1,0,0,-5]];perimeter=orthogonalPerimeter;outlineConnect=0;targetShapes=umlLifeline;portConstraint=eastwest;newEdgeStyle={&quot;curved&quot;:0,&quot;rounded&quot;:0};" vertex="1" parent="nwHrMvAd21um5Kx8FrDh-3">
          <mxGeometry x="45" y="520" width="10" height="55" as="geometry" />
        </mxCell>
        <mxCell id="nwHrMvAd21um5Kx8FrDh-44" value="" style="html=1;points=[[0,0,0,0,5],[0,1,0,0,-5],[1,0,0,0,5],[1,1,0,0,-5]];perimeter=orthogonalPerimeter;outlineConnect=0;targetShapes=umlLifeline;portConstraint=eastwest;newEdgeStyle={&quot;curved&quot;:0,&quot;rounded&quot;:0};" vertex="1" parent="nwHrMvAd21um5Kx8FrDh-3">
          <mxGeometry x="46" y="790" width="10" height="80" as="geometry" />
        </mxCell>
        <mxCell id="nwHrMvAd21um5Kx8FrDh-4" value="Flight Controller" style="shape=umlLifeline;perimeter=lifelinePerimeter;whiteSpace=wrap;html=1;container=1;dropTarget=0;collapsible=0;recursiveResize=0;outlineConnect=0;portConstraint=eastwest;newEdgeStyle={&quot;curved&quot;:0,&quot;rounded&quot;:0};" vertex="1" parent="1">
          <mxGeometry x="837" y="119" width="100" height="930" as="geometry" />
        </mxCell>
        <mxCell id="nwHrMvAd21um5Kx8FrDh-21" value="" style="html=1;points=[[0,0,0,0,5],[0,1,0,0,-5],[1,0,0,0,5],[1,1,0,0,-5]];perimeter=orthogonalPerimeter;outlineConnect=0;targetShapes=umlLifeline;portConstraint=eastwest;newEdgeStyle={&quot;curved&quot;:0,&quot;rounded&quot;:0};" vertex="1" parent="nwHrMvAd21um5Kx8FrDh-4">
          <mxGeometry x="45" y="380" width="10" height="200" as="geometry" />
        </mxCell>
        <mxCell id="nwHrMvAd21um5Kx8FrDh-41" value="" style="html=1;points=[[0,0,0,0,5],[0,1,0,0,-5],[1,0,0,0,5],[1,1,0,0,-5]];perimeter=orthogonalPerimeter;outlineConnect=0;targetShapes=umlLifeline;portConstraint=eastwest;newEdgeStyle={&quot;curved&quot;:0,&quot;rounded&quot;:0};" vertex="1" parent="nwHrMvAd21um5Kx8FrDh-4">
          <mxGeometry x="45" y="760" width="10" height="140" as="geometry" />
        </mxCell>
        <mxCell id="nwHrMvAd21um5Kx8FrDh-5" value="Drone Controller" style="shape=umlLifeline;perimeter=lifelinePerimeter;whiteSpace=wrap;html=1;container=1;dropTarget=0;collapsible=0;recursiveResize=0;outlineConnect=0;portConstraint=eastwest;newEdgeStyle={&quot;curved&quot;:0,&quot;rounded&quot;:0};" vertex="1" parent="1">
          <mxGeometry x="417" y="119" width="100" height="930" as="geometry" />
        </mxCell>
        <mxCell id="nwHrMvAd21um5Kx8FrDh-9" value="" style="html=1;points=[[0,0,0,0,5],[0,1,0,0,-5],[1,0,0,0,5],[1,1,0,0,-5]];perimeter=orthogonalPerimeter;outlineConnect=0;targetShapes=umlLifeline;portConstraint=eastwest;newEdgeStyle={&quot;curved&quot;:0,&quot;rounded&quot;:0};" vertex="1" parent="nwHrMvAd21um5Kx8FrDh-5">
          <mxGeometry x="45" y="70" width="10" height="120" as="geometry" />
        </mxCell>
        <mxCell id="nwHrMvAd21um5Kx8FrDh-15" value="" style="html=1;points=[[0,0,0,0,5],[0,1,0,0,-5],[1,0,0,0,5],[1,1,0,0,-5]];perimeter=orthogonalPerimeter;outlineConnect=0;targetShapes=umlLifeline;portConstraint=eastwest;newEdgeStyle={&quot;curved&quot;:0,&quot;rounded&quot;:0};" vertex="1" parent="nwHrMvAd21um5Kx8FrDh-5">
          <mxGeometry x="45" y="230" width="10" height="120" as="geometry" />
        </mxCell>
        <mxCell id="nwHrMvAd21um5Kx8FrDh-35" value="" style="html=1;points=[[0,0,0,0,5],[0,1,0,0,-5],[1,0,0,0,5],[1,1,0,0,-5]];perimeter=orthogonalPerimeter;outlineConnect=0;targetShapes=umlLifeline;portConstraint=eastwest;newEdgeStyle={&quot;curved&quot;:0,&quot;rounded&quot;:0};" vertex="1" parent="nwHrMvAd21um5Kx8FrDh-5">
          <mxGeometry x="45" y="610" width="10" height="140" as="geometry" />
        </mxCell>
        <mxCell id="nwHrMvAd21um5Kx8FrDh-6" value="DroneRepository" style="shape=umlLifeline;perimeter=lifelinePerimeter;whiteSpace=wrap;html=1;container=1;dropTarget=0;collapsible=0;recursiveResize=0;outlineConnect=0;portConstraint=eastwest;newEdgeStyle={&quot;curved&quot;:0,&quot;rounded&quot;:0};" vertex="1" parent="1">
          <mxGeometry x="627" y="119" width="100" height="930" as="geometry" />
        </mxCell>
        <mxCell id="nwHrMvAd21um5Kx8FrDh-12" value="" style="html=1;points=[[0,0,0,0,5],[0,1,0,0,-5],[1,0,0,0,5],[1,1,0,0,-5]];perimeter=orthogonalPerimeter;outlineConnect=0;targetShapes=umlLifeline;portConstraint=eastwest;newEdgeStyle={&quot;curved&quot;:0,&quot;rounded&quot;:0};" vertex="1" parent="nwHrMvAd21um5Kx8FrDh-6">
          <mxGeometry x="45" y="90" width="10" height="80" as="geometry" />
        </mxCell>
        <mxCell id="nwHrMvAd21um5Kx8FrDh-18" value="" style="html=1;points=[[0,0,0,0,5],[0,1,0,0,-5],[1,0,0,0,5],[1,1,0,0,-5]];perimeter=orthogonalPerimeter;outlineConnect=0;targetShapes=umlLifeline;portConstraint=eastwest;newEdgeStyle={&quot;curved&quot;:0,&quot;rounded&quot;:0};" vertex="1" parent="nwHrMvAd21um5Kx8FrDh-6">
          <mxGeometry x="45" y="250" width="10" height="80" as="geometry" />
        </mxCell>
        <mxCell id="nwHrMvAd21um5Kx8FrDh-27" value="" style="html=1;points=[[0,0,0,0,5],[0,1,0,0,-5],[1,0,0,0,5],[1,1,0,0,-5]];perimeter=orthogonalPerimeter;outlineConnect=0;targetShapes=umlLifeline;portConstraint=eastwest;newEdgeStyle={&quot;curved&quot;:0,&quot;rounded&quot;:0};" vertex="1" parent="nwHrMvAd21um5Kx8FrDh-6">
          <mxGeometry x="45" y="425" width="10" height="80" as="geometry" />
        </mxCell>
        <mxCell id="nwHrMvAd21um5Kx8FrDh-38" value="" style="html=1;points=[[0,0,0,0,5],[0,1,0,0,-5],[1,0,0,0,5],[1,1,0,0,-5]];perimeter=orthogonalPerimeter;outlineConnect=0;targetShapes=umlLifeline;portConstraint=eastwest;newEdgeStyle={&quot;curved&quot;:0,&quot;rounded&quot;:0};" vertex="1" parent="nwHrMvAd21um5Kx8FrDh-6">
          <mxGeometry x="46" y="640" width="10" height="80" as="geometry" />
        </mxCell>
        <mxCell id="nwHrMvAd21um5Kx8FrDh-10" value="POST /dronora/drones&lt;br&gt;createDrone()&amp;nbsp;" style="html=1;verticalAlign=bottom;endArrow=block;curved=0;rounded=0;entryX=0;entryY=0;entryDx=0;entryDy=5;" edge="1" target="nwHrMvAd21um5Kx8FrDh-9" parent="1" source="nwHrMvAd21um5Kx8FrDh-8">
          <mxGeometry relative="1" as="geometry">
            <mxPoint x="392" y="194" as="sourcePoint" />
          </mxGeometry>
        </mxCell>
        <mxCell id="nwHrMvAd21um5Kx8FrDh-11" value="drone" style="html=1;verticalAlign=bottom;endArrow=open;dashed=1;endSize=8;curved=0;rounded=0;exitX=0;exitY=1;exitDx=0;exitDy=-5;" edge="1" source="nwHrMvAd21um5Kx8FrDh-9" parent="1" target="nwHrMvAd21um5Kx8FrDh-8">
          <mxGeometry relative="1" as="geometry">
            <mxPoint x="392" y="264" as="targetPoint" />
          </mxGeometry>
        </mxCell>
        <mxCell id="nwHrMvAd21um5Kx8FrDh-13" value="save()" style="html=1;verticalAlign=bottom;endArrow=block;curved=0;rounded=0;entryX=0;entryY=0;entryDx=0;entryDy=5;" edge="1" target="nwHrMvAd21um5Kx8FrDh-12" parent="1" source="nwHrMvAd21um5Kx8FrDh-9">
          <mxGeometry relative="1" as="geometry">
            <mxPoint x="602" y="214" as="sourcePoint" />
          </mxGeometry>
        </mxCell>
        <mxCell id="nwHrMvAd21um5Kx8FrDh-14" value="drone" style="html=1;verticalAlign=bottom;endArrow=open;dashed=1;endSize=8;curved=0;rounded=0;exitX=0;exitY=1;exitDx=0;exitDy=-5;" edge="1" source="nwHrMvAd21um5Kx8FrDh-12" parent="1" target="nwHrMvAd21um5Kx8FrDh-9">
          <mxGeometry relative="1" as="geometry">
            <mxPoint x="602" y="284" as="targetPoint" />
          </mxGeometry>
        </mxCell>
        <mxCell id="nwHrMvAd21um5Kx8FrDh-16" value="GET /dronora/:id&lt;br&gt;getDrone()" style="html=1;verticalAlign=bottom;endArrow=block;curved=0;rounded=0;entryX=0;entryY=0;entryDx=0;entryDy=5;" edge="1" target="nwHrMvAd21um5Kx8FrDh-15" parent="1" source="nwHrMvAd21um5Kx8FrDh-8">
          <mxGeometry relative="1" as="geometry">
            <mxPoint x="392" y="354" as="sourcePoint" />
          </mxGeometry>
        </mxCell>
        <mxCell id="nwHrMvAd21um5Kx8FrDh-17" value="drone" style="html=1;verticalAlign=bottom;endArrow=open;dashed=1;endSize=8;curved=0;rounded=0;exitX=0;exitY=1;exitDx=0;exitDy=-5;" edge="1" source="nwHrMvAd21um5Kx8FrDh-15" parent="1" target="nwHrMvAd21um5Kx8FrDh-8">
          <mxGeometry relative="1" as="geometry">
            <mxPoint x="392" y="424" as="targetPoint" />
          </mxGeometry>
        </mxCell>
        <mxCell id="nwHrMvAd21um5Kx8FrDh-19" value="findById()" style="html=1;verticalAlign=bottom;endArrow=block;curved=0;rounded=0;entryX=0;entryY=0;entryDx=0;entryDy=5;" edge="1" target="nwHrMvAd21um5Kx8FrDh-18" parent="1" source="nwHrMvAd21um5Kx8FrDh-15">
          <mxGeometry relative="1" as="geometry">
            <mxPoint x="602" y="374" as="sourcePoint" />
          </mxGeometry>
        </mxCell>
        <mxCell id="nwHrMvAd21um5Kx8FrDh-20" value="drone" style="html=1;verticalAlign=bottom;endArrow=open;dashed=1;endSize=8;curved=0;rounded=0;exitX=0;exitY=1;exitDx=0;exitDy=-5;" edge="1" source="nwHrMvAd21um5Kx8FrDh-18" parent="1" target="nwHrMvAd21um5Kx8FrDh-15">
          <mxGeometry relative="1" as="geometry">
            <mxPoint x="602" y="444" as="targetPoint" />
          </mxGeometry>
        </mxCell>
        <mxCell id="nwHrMvAd21um5Kx8FrDh-22" value="POST /dronora/flights&lt;br&gt;createFoodOrder()" style="html=1;verticalAlign=bottom;endArrow=block;curved=0;rounded=0;entryX=0;entryY=0;entryDx=0;entryDy=5;" edge="1" target="nwHrMvAd21um5Kx8FrDh-21" parent="1" source="nwHrMvAd21um5Kx8FrDh-8">
          <mxGeometry relative="1" as="geometry">
            <mxPoint x="812" y="504" as="sourcePoint" />
          </mxGeometry>
        </mxCell>
        <mxCell id="nwHrMvAd21um5Kx8FrDh-23" value="flight" style="html=1;verticalAlign=bottom;endArrow=open;dashed=1;endSize=8;curved=0;rounded=0;exitX=0;exitY=1;exitDx=0;exitDy=-5;" edge="1" source="nwHrMvAd21um5Kx8FrDh-21" parent="1" target="nwHrMvAd21um5Kx8FrDh-8">
          <mxGeometry relative="1" as="geometry">
            <mxPoint x="812" y="574" as="targetPoint" />
          </mxGeometry>
        </mxCell>
        <mxCell id="nwHrMvAd21um5Kx8FrDh-25" value="createOrder()" style="html=1;verticalAlign=bottom;endArrow=block;curved=0;rounded=0;entryX=0;entryY=0;entryDx=0;entryDy=5;" edge="1" target="nwHrMvAd21um5Kx8FrDh-24" parent="1" source="nwHrMvAd21um5Kx8FrDh-21">
          <mxGeometry relative="1" as="geometry">
            <mxPoint x="1022" y="524" as="sourcePoint" />
          </mxGeometry>
        </mxCell>
        <mxCell id="nwHrMvAd21um5Kx8FrDh-26" value="return" style="html=1;verticalAlign=bottom;endArrow=open;dashed=1;endSize=8;curved=0;rounded=0;exitX=0;exitY=1;exitDx=0;exitDy=-5;" edge="1" parent="1">
          <mxGeometry relative="1" as="geometry">
            <mxPoint x="892" y="699" as="targetPoint" />
            <mxPoint x="1092" y="699" as="sourcePoint" />
          </mxGeometry>
        </mxCell>
        <mxCell id="nwHrMvAd21um5Kx8FrDh-28" value="findByAvailable()" style="html=1;verticalAlign=bottom;endArrow=block;curved=0;rounded=0;entryX=1;entryY=0;entryDx=0;entryDy=5;" edge="1" target="nwHrMvAd21um5Kx8FrDh-27" parent="1" source="nwHrMvAd21um5Kx8FrDh-24">
          <mxGeometry relative="1" as="geometry">
            <mxPoint x="752" y="549" as="sourcePoint" />
          </mxGeometry>
        </mxCell>
        <mxCell id="nwHrMvAd21um5Kx8FrDh-29" value="drone" style="html=1;verticalAlign=bottom;endArrow=open;dashed=1;endSize=8;curved=0;rounded=0;exitX=1;exitY=1;exitDx=0;exitDy=-5;" edge="1" source="nwHrMvAd21um5Kx8FrDh-27" parent="1" target="nwHrMvAd21um5Kx8FrDh-24">
          <mxGeometry relative="1" as="geometry">
            <mxPoint x="752" y="619" as="targetPoint" />
          </mxGeometry>
        </mxCell>
        <mxCell id="nwHrMvAd21um5Kx8FrDh-34" value="flight" style="html=1;verticalAlign=bottom;endArrow=open;dashed=1;endSize=8;curved=0;rounded=0;exitX=0;exitY=1;exitDx=0;exitDy=-5;" edge="1" source="nwHrMvAd21um5Kx8FrDh-32" parent="1">
          <mxGeometry relative="1" as="geometry">
            <mxPoint x="1102" y="689" as="targetPoint" />
          </mxGeometry>
        </mxCell>
        <mxCell id="nwHrMvAd21um5Kx8FrDh-33" value="save()" style="html=1;verticalAlign=bottom;endArrow=block;curved=0;rounded=0;entryX=0;entryY=0;entryDx=0;entryDy=5;" edge="1" target="nwHrMvAd21um5Kx8FrDh-32" parent="1">
          <mxGeometry relative="1" as="geometry">
            <mxPoint x="1102" y="644" as="sourcePoint" />
          </mxGeometry>
        </mxCell>
        <mxCell id="nwHrMvAd21um5Kx8FrDh-37" value="List&amp;lt;Drone&amp;gt;" style="html=1;verticalAlign=bottom;endArrow=open;dashed=1;endSize=8;curved=0;rounded=0;exitX=0;exitY=1;exitDx=0;exitDy=-5;" edge="1" source="nwHrMvAd21um5Kx8FrDh-35" parent="1" target="nwHrMvAd21um5Kx8FrDh-8">
          <mxGeometry relative="1" as="geometry">
            <mxPoint x="392" y="804" as="targetPoint" />
          </mxGeometry>
        </mxCell>
        <mxCell id="nwHrMvAd21um5Kx8FrDh-36" value="GET /dronora/drones/all&lt;br&gt;allDrones()" style="html=1;verticalAlign=bottom;endArrow=block;curved=0;rounded=0;entryX=0;entryY=0;entryDx=0;entryDy=5;" edge="1" target="nwHrMvAd21um5Kx8FrDh-35" parent="1" source="nwHrMvAd21um5Kx8FrDh-8">
          <mxGeometry relative="1" as="geometry">
            <mxPoint x="392" y="734" as="sourcePoint" />
          </mxGeometry>
        </mxCell>
        <mxCell id="nwHrMvAd21um5Kx8FrDh-39" value="findAll()" style="html=1;verticalAlign=bottom;endArrow=block;curved=0;rounded=0;entryX=0;entryY=0;entryDx=0;entryDy=5;" edge="1" target="nwHrMvAd21um5Kx8FrDh-38" parent="1" source="nwHrMvAd21um5Kx8FrDh-35">
          <mxGeometry relative="1" as="geometry">
            <mxPoint x="603" y="764" as="sourcePoint" />
          </mxGeometry>
        </mxCell>
        <mxCell id="nwHrMvAd21um5Kx8FrDh-40" value="List&amp;lt;Drone&amp;gt;" style="html=1;verticalAlign=bottom;endArrow=open;dashed=1;endSize=8;curved=0;rounded=0;exitX=0;exitY=1;exitDx=0;exitDy=-5;" edge="1" source="nwHrMvAd21um5Kx8FrDh-38" parent="1" target="nwHrMvAd21um5Kx8FrDh-35">
          <mxGeometry relative="1" as="geometry">
            <mxPoint x="603" y="834" as="targetPoint" />
          </mxGeometry>
        </mxCell>
        <mxCell id="nwHrMvAd21um5Kx8FrDh-42" value="GET /dronora/flights/all&lt;br&gt;allOrders()" style="html=1;verticalAlign=bottom;endArrow=block;curved=0;rounded=0;entryX=0;entryY=0;entryDx=0;entryDy=5;" edge="1" target="nwHrMvAd21um5Kx8FrDh-41" parent="1" source="nwHrMvAd21um5Kx8FrDh-8">
          <mxGeometry relative="1" as="geometry">
            <mxPoint x="812" y="884" as="sourcePoint" />
          </mxGeometry>
        </mxCell>
        <mxCell id="nwHrMvAd21um5Kx8FrDh-43" value="List&amp;lt;Order&amp;gt;" style="html=1;verticalAlign=bottom;endArrow=open;dashed=1;endSize=8;curved=0;rounded=0;exitX=0;exitY=1;exitDx=0;exitDy=-5;" edge="1" source="nwHrMvAd21um5Kx8FrDh-41" parent="1" target="nwHrMvAd21um5Kx8FrDh-8">
          <mxGeometry relative="1" as="geometry">
            <mxPoint x="812" y="954" as="targetPoint" />
          </mxGeometry>
        </mxCell>
        <mxCell id="nwHrMvAd21um5Kx8FrDh-45" value="findAll()" style="html=1;verticalAlign=bottom;endArrow=block;curved=0;rounded=0;entryX=0;entryY=0;entryDx=0;entryDy=5;" edge="1" target="nwHrMvAd21um5Kx8FrDh-44" parent="1" source="nwHrMvAd21um5Kx8FrDh-41">
          <mxGeometry relative="1" as="geometry">
            <mxPoint x="897" y="914" as="sourcePoint" />
          </mxGeometry>
        </mxCell>
        <mxCell id="nwHrMvAd21um5Kx8FrDh-46" value="List&amp;lt;Order&amp;gt;" style="html=1;verticalAlign=bottom;endArrow=open;dashed=1;endSize=8;curved=0;rounded=0;exitX=0;exitY=1;exitDx=0;exitDy=-5;" edge="1" source="nwHrMvAd21um5Kx8FrDh-44" parent="1" target="nwHrMvAd21um5Kx8FrDh-41">
          <mxGeometry relative="1" as="geometry">
            <mxPoint x="1243" y="984" as="targetPoint" />
          </mxGeometry>
        </mxCell>
      </root>
    </mxGraphModel>
  </diagram>
</mxfile>
